<svg id="Layer_1" data-name="Layer 1" xmlns="http://www.w3.org/2000/svg" viewBox="0 0 349.22 208.06">
  <defs>
    <style>
      .cls-1 {
        fill: none;
        stroke: #68686d;
        stroke-miterlimit: 10;
      }
    </style>
  </defs>
  <title>cover</title>
  <g>
    <path class="cls-1" d="M339.47,274.06c.4-5.56.7-11.13,1.15-16.68.18-2.32-1.07-3.45-3-4s-3.9-.71-6.25-1.12a59.83,59.83,0,0,1-.67-8.42c.26-4.82.86-9.63,1.54-14.41,1.11-7.86,2.4-15.69,3.63-23.53a3.36,3.36,0,0,1,.49-1l1.27-2.37-.05,0c-.3.18-.62.39-1.19.76A58.06,58.06,0,0,1,347.17,186c-.3.48-.6,1-.89,1.45-2.57,4.22-5.16,8.43-7.69,12.67a16.15,16.15,0,0,0-1,2.47q7.05-11.29,14.09-22.61l-.18-.21-8.64,9.63c1.22-3.31,2.2-6.31,3.43-9.19s2.66-5.51,4-8.25l-.48-.24c-4,3.6-5.73,8.62-8,13.71.05-8.05,3.81-14.77,5.29-22.06-5.36,8.95-8.34,18.72-10.23,28.9a68.75,68.75,0,0,1,.63-8.39,79.33,79.33,0,0,1,1.27-8.17c.64-2.74,1.73-5.36,2.5-8.07s1.33-5.3,2-7.95l-.65-.18-5.42,15.36q1.5-3.36,3-6.72a103.22,103.22,0,0,1-6.47,18.29l-.66-.17c.09-1.2.25-2.41.27-3.62a93.89,93.89,0,0,0,0-10.34c-.54-5.55.75-10.84,1.68-16.2.05-.3.11-.6.13-.68v25.14c.45-1.32,1-2.86,1.48-4.4l-.7.53c0-3.93-.57-7.85.14-11.53,1-5.14,2.94-10.1,4.48-15.13h0c-.48,1.05-1.05,2.06-1.42,3.14-1.06,3-2,6.1-3,9.16l-.33-.07,1-19.36-.45,0-3.18,20.89-.5,0q-.43-5.91-.86-11.82h-.56q-.27,10.62-.55,21.24l-.39,0q-1-5.4-1.91-10.79a1.11,1.11,0,0,0-.51,1c.26,4.13.42,8.27.82,12.39s.43,8.42,2.73,12.17a1.87,1.87,0,0,1,.08,1c-.41,6-.91,12-1.22,18.06-.34,6.66-.49,13.33-.75,20-.11,2.93-.27,5.86-.41,8.79a6,6,0,0,1-.57-1.65c-.9-3.44-1.57-7-2.78-10.3A7.94,7.94,0,0,1,326,217c3-6.63,2.71-13.77,1.79-20.86a5.13,5.13,0,0,0-.61-1.36c-.54,2.82-.71,5.52-1.08,8.19-.25,1.73-.8,3.41-1.21,5.11l.39,2.16.21,0q.92-6.69,1.81-13.39a37.2,37.2,0,0,1-1.55,18.44v-3.76h-.21c-.07.63-.14,1.25-.23,2.12-1.44-4.85-2.32-9.59-4.7-13.85s-2.46-9.28-5.24-13.3c.36,9.32,4.66,17.62,6.43,26.57l-5.43-13.3c-.35.53-.47.63-.45.7.17,1,.32,2.05.56,3.06,1.5,6.16,2.29,12.61,7.1,17.43a1.58,1.58,0,0,1,.24.64c.91,3,1.95,5.9,2.67,8.91a98.92,98.92,0,0,1,2.14,11.16c.39,3.21.23,6.49.34,9.75,0,1.25-.67,1.44-1.71,1.58a25.74,25.74,0,0,0-4.86,1,2.62,2.62,0,0,0-2,2.91c.49,3.93,1.05,7.85,1.57,11.78.41,3,.79,6.08,1.19,9.13H310.05c-.29-2.67-.7-5.21-.82-7.77-.62-13.86-1.64-27.72-1.62-41.57,0-19.86.1-39.7-.83-59.53-.52-11.27-.88-22.55-1.33-33.82a33.29,33.29,0,0,0-.39-3.6c-.45-3-1.43-4.06-4.45-4.27-2.85-.19-5.72,0-8.57,0l-.69-1.77c.37-.35.72-.65,1-1,3.38-3.57,1.53-10.76-3.16-12.18-.81-.24-1.41-.38-1.59-1.41-.08-.43-1-.72-1.54-1.07-.28.55-.59,1.08-.84,1.65-.08.18,0,.43,0,.63-7.51,3.37-8.65,8.51-3.11,13.71-.13,1.22-.79,1.55-2,1.5-3.11-.11-6.22-.17-9.32,0-2.43.11-3.72,1.31-4,3.71a32.83,32.83,0,0,0,0,6.19c.33,4.06,1,8.11,1.22,12.18.42,7,.63,14,.95,21,.27,5.91.72,11.82.82,17.74q.33,18.57.37,37.13c.06,17.43,0,34.87,0,52.31H255.25c-.18-3.18-.45-6.16-.5-9.14-.18-10.86-.2-21.73-.46-32.6-.17-7.36-.65-14.72-.95-22.08-.09-2.18,0-2.17,2.08-1.63a2.55,2.55,0,0,0,1.38-.08,10.92,10.92,0,0,0,.41-4c-.11-.6-1.56-1.25-2.44-1.31-2.56-.17-5.14-.06-7.82-.06-.1-.83-.23-1.51-.25-2.18-.06-2.94,0-5.88-.16-8.81-.18-3.8.83-7.64-.39-11.4a1.35,1.35,0,0,1,.3-1c.53-.79,1.11-1.55,1.59-2.21a7.41,7.41,0,0,0,1.43.17c.07,0,.28-.76.16-.86-1-.87-.21-1.65.16-2.29,1.07-1.82,2.26-3.5,2.1-5.83-.09-1.28.32-2.68-1.17-3.24s-2.34.65-3,1.76a23.35,23.35,0,0,0-1.18,2.87c-.2.5-.42,1-.64,1.49a66.26,66.26,0,0,1,.11-6.78,61.73,61.73,0,0,0,.06-6.8c-.16-2.14-.71-4.25-1.08-6.38h-.85c-.78,4.22-1.57,8.44-2.34,12.51-.31-.76-.73-1.76-1.21-2.91l-.78,1L238,162l-.94,4.61-3-4.41-.8.35a95.82,95.82,0,0,0,1.69,9.6,50.5,50.5,0,0,1,2.1,12c.14,5.29.61,10.56,1,15.84.15,2.44.32,4.88.49,7.55l-15.16.53a3.21,3.21,0,0,1,1.26-3.58,16.91,16.91,0,0,0,4.06-4.17,8.92,8.92,0,0,0,1.25-4.84c-.11-2.58-2.16-3.47-4.44-2.25l-.73.38c-.59-1-1.05-2.67-1.62-2.7a85.91,85.91,0,0,0-9.76.08c-.33,0-1,1-.88,1.48.83,5,1.78,9.93,2.74,15.11-2.15-.15-4.15-.41-6.14-.4-8.17,0-16.34.19-24.5.19a54,54,0,0,1-9.26-.58c-3.07-.54-6.05-1.39-9.2-.74-1.29.27-1.77-.37-1.76-1.62,0-3.66,0-7.32,0-11.12.8-.06,1.53-.13,2.26-.15l16.06-.31c6.22-.12,12.44-.16,18.65-.39,4.19-.15,5.48-1.58,5.63-5.77a49.1,49.1,0,0,0,0-5.69c-.59-7.52-1.32-15-1.89-22.54-.24-3-.17-6.09-.3-9.14-.13-2.8-.86-3.54-3.61-3.81-1.26-.13-2.53-.18-3.77-.43a97.41,97.41,0,0,0-20.94-1.84c-8.92.15-17.84.27-26.76.41-3.74.06-7.48.06-11.22.23-6,.28-12.06.74-18.09,1-2.2.09-3,.34-3.35,2.54a25.17,25.17,0,0,0,.06,5.13c.56,11.84,1.17,23.68,1.69,35.52.16,3.59,1.4,5.25,4.68,5.33q9,.22,17.95.23c4.66,0,9.32-.15,14-.22.44,0,.88.07,1.64.14.14,3.3.4,6.5.38,9.71,0,2.17-.56,2.52-2.72,2.53-.8,0-1.61.07-2.41.1-7.88.32-15.75.79-23.62.91-6.21.09-12.42-.23-18.63-.39-4.43-.11-8.86-.15-13.27-.43-3.35-.2-4.34.72-3.88,4,.21,1.5.93,2.28,2.5,2.2a10.51,10.51,0,0,1,1.52.18c.17,11.19.22,22.29.54,33.38s2.06,22,1.85,33.07H88.5c-4.41,0-4.43,0-4.55-4.52-.14-5.18-.27-10.35-.33-15.53-.27-22-.47-44-.79-66a49.49,49.49,0,0,0-1-9.57c-1.11-5.13-.27-3.72-5.09-4.66a8,8,0,0,0-1.37.07H70.12c.09-1.9.21-3.81.24-5.72,0-1-.29-2,1.13-2.47.51-.17.92-1.16,1-1.83a20.38,20.38,0,0,0,.38-4.12c-.09-4.72,1-4.73-4.37-5.69,0,0-.07-.08-.19-.24.52-1.07.22-2.61,1.57-3.2-.06-.7-.17-1.33-.16-2,0-1.87.61-3.72-.19-5.61-.28-.67.08-1.62.13-2.23A16,16,0,0,1,68.43,144c-.48-.76-.86-1.58-1.28-2.39s-.73-1.49-1.2-2.44l-8.37.46-2.9,4.66c-.4,4.65-.39,9.45,2,13.78l-1.42,1.22,2.28.1a2,2,0,0,1-1.32.69c-2.35.34-3,1-2.67,3.28.24,1.94.6,3.86,1,5.78A2.82,2.82,0,0,0,57,171.61a1.54,1.54,0,0,1,1,1c.38,2,.62,4.06.95,6.32H36.45c.16-2,.4-3.93.43-5.84,0-1.2-.27-2.33,1.23-3,.43-.18.73-1,.79-1.63.21-2.4.4-4.8.39-7.21a2.4,2.4,0,0,0-1.24-1.73,18.37,18.37,0,0,0-3.37-.79c-.92-2.11-1.78-4.1-2.61-6a18.14,18.14,0,0,1-2.55,0c-3.23-.45-5.07.91-5.38,4.14-.08.9,0,1.82,0,2.84-.52.11-1,.23-1.51.31-2.39.35-3,1.1-2.68,3.44.24,1.71.51,3.42.83,5.11.29,1.49.9,2.72,2.65,3a1.5,1.5,0,0,1,.94,1c.43,2.12.75,4.26,1.11,6.4-4.28.57-8.77-1.12-12.61,1.82q1.75,48.9,3.51,98l-12.77,1c0,.19,0,.38,0,.57.55,0,1.1,0,1.66,0,6.15-.34,12.3-1,18.45-1,11.1,0,22.21.43,33.32.54,20,.2,40.07.3,60.11.47.59,0,1.62.1,1.69.37.48,1.7,1.38,3.67.91,5.16a2.53,2.53,0,0,0,1.09,3.3c3.17,2.3,12.36,2.45,15.68.33a2.75,2.75,0,0,0,1.42-2.71c-.15-2.34-.05-4.68-.05-6.73,4,0,7.78,0,11.57,0,.35,0,.7.54,1.33,1.06-2.66.27-5.06.6-5.77,2.91a34,34,0,0,0-.85,7.16c-.18,2.32,3.31,4.18,5.93,3.64s3.4-2.2,2.7-5.13a1.5,1.5,0,0,1,.06-.46c1.75,1.17,3.47,1.88,5.3.38,1.62-1.33,1.86-2.76.94-5.38l2.5-1.33c2.28,3.56,5.36,1.16,8.15,1-.23,2.71,1.6,5.19,3.92,5.2a4.09,4.09,0,0,0,2.32-.92c1.45-1.16,1.42-2.84,1-4.56l.35-.33,4.1,2.17a22.35,22.35,0,0,0-1.6,3.54,4.29,4.29,0,0,0,3.18,5.17,5,5,0,0,0,5.66-3.14c.83-2.23,0-4.08-2.3-5.23a2.14,2.14,0,0,1-.95-.83c-.77-1.46-1.45-2.95-2.28-4.68,1.07,0,2.09,0,3.1,0,8-.13,15.89-.16,23.83-.43,7-.24,14-1,21-1.08,10.67-.16,21.34,0,32,.07,2.93,0,5.86,0,8.79.18,3.49.2,7,.84,10.46.86,9,.08,18-.67,27-1,11.46-.48,23,.6,34.48,1,.57,0,1.14,0,1.71,0,0-.16,0-.33.05-.5-2-1.32-4.47-1.08-6.75-1.33C339.12,276.67,339.38,275.37,339.47,274.06Zm6.27-95.69.49.21c-2.65,6.46-4.11,13.42-8.54,19.14Zm-.72-10c-.91,3.24-1.87,6.47-2.71,9.73-.45,1.72-.56,3.52-1,5.24-1.09,4.14-2.28,8.25-3.43,12.37l-.63-.25C339,186.24,340.58,176.91,345,168.41ZM318,206c1.46,4.63,4.63,8.57,5.16,13.51A32.71,32.71,0,0,1,318,206Zm6.31,12.26q-3.45-11.93-6.89-23.87l.41-.11C320.31,202.2,325.24,209.45,324.31,218.24Zm-97.44-24.86c1.37-.21,2,.56,2.26,1.78a5.92,5.92,0,0,1-2.35,6c.63-1.67,2-3.39.38-5-.55-.55-1.95-.24-3-.33C224.05,194.85,225.22,193.63,226.87,193.38Zm-2.9,5.09a3.71,3.71,0,0,1,1.27-1.76,1.66,1.66,0,0,1,1.2,0,3.88,3.88,0,0,1,.12,2.09,29.92,29.92,0,0,1-2.13,3.38l-.52-.26A18.57,18.57,0,0,1,224,198.47ZM67.3,142.88a41.15,41.15,0,0,1,1.48,6,26.84,26.84,0,0,1-.28,6.06,22.22,22.22,0,0,1-2,5.71l-.46-.18c.28-1.9.62-3.79.82-5.7a36.43,36.43,0,0,0,.35-6,9.49,9.49,0,0,0-1.28-3.33C65.27,144.1,65.76,143.39,67.3,142.88Zm-3.23-2.74,2.7,1.77-1.69,1.16c-.51-1.09-.9-1.89-1.28-2.7Zm-1.62.27c.24.18.54.29.64.5,2.82,5.85,4.27,11.87,2.21,18.3-.44,1.39-.49,1.37-2.33,1.34.23-1.36.48-2.68.67-4,0-.19-.21-.42-.23-.64a10.13,10.13,0,0,1-.09-3,2.06,2.06,0,0,0,0-1.37,11.44,11.44,0,0,1,.11-3.56c-1-.43-1.38-2.27-.29-3.66C62,143.5,61.83,142.58,62.45,140.41Zm-1,1.38c.39,4.5.79,9,1.16,13.51.11,1.38.19,2.76.21,4.13a4.26,4.26,0,0,1-.33,1.22c-.39-.25-1-.42-1.12-.77a32.3,32.3,0,0,1-1.77-6.09,24,24,0,0,1,1.3-12ZM56,153.2a38,38,0,0,1-.47-6.33c0-1.18.69-2.21,1-3.35.46-1.92,2.4-2.65,4.17-3.44-2.67,5.06-2.28,10.31-1.5,15.73l-.67.16,2.71,4.48a2.23,2.23,0,0,1-3-1.38A26.3,26.3,0,0,1,56,153.2Zm-.81,13.93c-.14-1.48-.48-2.95-.53-4.43,0-.44.77-1.32,1.08-1.27,5.31.75,10.53-.35,15.79-.61a1.75,1.75,0,0,1,.29.11c.87,6.65,1,6.29-5.07,7.84a21.73,21.73,0,0,1-9.92,0C55.84,168.58,55.27,168.17,55.16,167.13Zm.94,2.37a32.76,32.76,0,0,0,15.53-1.32C70.37,171.14,58.92,172.14,56.1,169.5Zm2.12,1.93H69.59a47.48,47.48,0,0,1-.64,5.89c-.13.61-1.28,1.27-2,1.4-1.51.25-3.09.07-4.64.19A2,2,0,0,1,60,177.5C59.35,175.68,58.89,173.81,58.22,171.43ZM31.81,156.88l.86-.52c1.31,2.71.64,4.18-2.15,4.19.26-1.84.5-3.64.76-5.52a1.71,1.71,0,0,0-.48.09,3.67,3.67,0,0,0-.57.44c-.33-.66-.63-1.25-1-1.92C31.8,154.18,32.27,154.77,31.81,156.88Zm-2.94-2.4A34.71,34.71,0,0,1,30,158.9c.06.5-.68,1.1-1.06,1.65-.43-.45-1.09-.83-1.25-1.35a5.79,5.79,0,0,1,.61-4.7Zm-.95-1a7.34,7.34,0,0,0-.58,7.07c-1.38.37-2-.36-2.34-1.41-.08-.27.24-.67.45-1.18C24.5,156.8,25.43,154.51,27.92,153.52Zm-6.19,13.86a25.57,25.57,0,0,1-.64-4.76c0-.41.8-1.26,1.13-1.21,5.14.76,10.2-.26,15.28-.6a8.18,8.18,0,0,1,.82.07c.06.68.13,1.19.16,1.7.28,5,.7,4.46-4.23,6a20.66,20.66,0,0,1-11.25.08A2.1,2.1,0,0,1,21.73,167.38Zm.81,2.58c0-.16.09-.32.13-.49a36.92,36.92,0,0,0,15.63-1c-.54.5-1,1.35-1.61,1.43-3.62.49-7.26.9-10.9,1.1C24.73,171,23.62,170.32,22.54,170Zm2.3,1.71c1.11,0,1.73,0,2.35,0,2.28-.16,4.57-.32,6.84-.57,1.16-.12,1.79,0,1.84,1.44.26,7.52-1.87,6.59-7.33,6.44a3.26,3.26,0,0,1-2.24-1.8A38.68,38.68,0,0,1,24.84,171.67Zm57.6,107.16c-10.14,0-20.27,0-30.4.14-1.65,0-2.13-.69-2.27-2.05a37.1,37.1,0,0,0-.71-4.77c.17,2.14.34,4.28.51,6.47H17.14Q15.6,229.9,14.06,181c1.77-1.16,3.89-1.25,6.11-1.23,7,.06,14,0,21,0H47v2.37c.11,13.12,0,26.26.39,39.37.3,9.95,1.3,19.87,1.8,29.82.28,5.51.18,11,.24,16.56,0,.8,0,1.6,0,2.4H50c0-6.3.29-12.61-.05-18.89-1.14-20.82-2.07-41.63-1.84-62.48,0-2.93,0-5.86,0-9,.83-.06,1.61-.17,2.39-.17,4.42,0,8.85.14,13.27.09,3.1,0,6.19-.34,9.29-.41,1.78,0,3.56.15,5.34.21a2.27,2.27,0,0,1,2.52,2.22c.36,3.31,1,6.61,1.08,9.92.51,21.87.89,43.74,1.32,65.61.11,5.64.22,11.27.37,16.91,0,1.42.26,2.84.4,4.4C83.43,278.74,82.93,278.83,82.44,278.83Zm171.11-44.12v20.2c-.74,0-1.74.15-2.75.14-5.34,0-10.68-.23-16-.1-4.64.12-9.27.75-13.91.91-4.8.16-9.62,0-14.76,0-.31-6.9-.63-14-1-21.18Zm-48.33-.92V213l47.25-.64q.38,10.2.8,21.41Zm41-27.14-1.64.19c-.09-1.74-.22-3.39-.24-5,0-4.88-.07-9.77,0-14.66,0-.48.51-1,.77-1.44a4.06,4.06,0,0,1,.6,1.38C245.91,193.56,246.07,200.05,246.24,206.65Zm3.7-36.92,1.27,1.88L251,172l-2.42-1.08ZM248,172.37c.12-.29,1.23-.35,1.82-.22.76.16,1.31.6.82,1.62-1.18,2.42-2.2,4.91-3.39,7.32-.25.5-.94.78-1.43,1.15l-.85-1.76C245.93,177.79,246.88,175.05,248,172.37Zm-3.65-14H245l.48,3-2.08.83C243.75,160.68,244,159.52,244.34,158.36Zm-1.12,6.16c.13-.63.9-1.14,1.37-1.7.37.37,1.09.77,1.08,1.13-.29,6.7-.66,13.4-1,20.1,0,.32-.3.61-.47.92l-.62-.13c0-1.65-.1-3.3,0-4.93C243.92,174.76,242.19,169.66,243.22,164.52Zm.65,41.48c-.05.35-.44.65-.68,1-.2-.3-.55-.58-.59-.9a29.79,29.79,0,0,1-.31-3.77c0-5.33,0-10.66,0-16.28l1-.14c.11.18.22.27.22.36q.24,8.78.44,17.54A13.81,13.81,0,0,1,243.87,206Zm-1.33-32.4c.12,3.44.34,6.87.47,10.31a4,4,0,0,1-.4,1.28c-.3-.26-.75-.47-.88-.81a26.22,26.22,0,0,1-1.79-13C242.49,171.29,242.46,171.31,242.54,173.6Zm-1.9-6.57.36,0c.31,1.1.63,2.19,1,3.49h-2.35C240,169.14,240.34,168.09,240.64,167Zm-2.55-2.43h.63a12.4,12.4,0,0,1,.78,2.64c0,.19-1.15.49-2.21.9C237.64,166.58,237.87,165.59,238.09,164.6Zm1.12,4.9c0,1.07-.13,2.14-.2,3.21l-.21.07c-.33-1.06-.7-2.11-1-3.19a1.35,1.35,0,0,1,.29-1,.75.75,0,0,1,.74-.05A1.5,1.5,0,0,1,239.21,169.5Zm-4.87-3.84c0-.17.35-.48.56-.5a.79.79,0,0,1,.62.41c.52,1,1,2.08-1,2.83C234.47,167.42,234.36,166.54,234.34,165.66Zm.59,3.68,2-.64c1.43,5.43,2.87,10.94,4.33,16.47-1.58.48-2.35.19-2.75-1.64C237.48,178.77,236.14,174.07,234.93,169.34Zm2.6,16.72c1.34-.35,1.71.1,1.75,1.22a54.21,54.21,0,0,0,.91,8.4c-.15-2.79-.27-5.59-.46-8.38-.07-1.09.3-1.48,1.53-1.15l1,20.87-.73.09c-.36-3.27-.71-6.55-1.07-9.83l-.32,0c.25,2.91.48,5.81.75,8.71.11,1.17-.42,1.4-1.5,1.13Q238.44,196.58,237.53,186.06Zm-14.75,6.38a25.32,25.32,0,0,1-9.44-.1C215.33,190.81,221.33,190.83,222.78,192.44Zm-9,1.21,9.45-.45c-.34,4.75-.69,9.58-1,14.55-1.77,0-3.25.07-4.73-.05a1.55,1.55,0,0,1-1-1C215.47,202.3,214.61,197.91,213.75,193.65Zm-68.64-1c-7.12,0-14.25,0-21.37,0-3,0-4.11-1.22-4.16-4-.14-7.59-.27-15.18-.61-22.76-.24-5.29-.82-10.55-1.24-15.83-.29-3.61.62-4.41,4.22-4.54,6.84-.24,13.67-.9,20.5-1,14.38-.2,28.77-.35,43.14-.11,5.19.09,10.37,1.33,15.54,2.11,1.66.24,2.41,1.33,2.49,3,.28,5.29.54,10.57.94,15.85.44,5.85,1.05,11.68,1.52,17.53a22.26,22.26,0,0,1,0,4.47c-.36,3.23-1.45,4.21-4.68,4.3q-10.37.27-20.72.45c-2.82.06-5.64,0-8.46,0v.57Zm12.48.62c1.68,0,3.17,0,4.65,0,1.16,0,1.14.81,1.15,1.52,0,2.58,0,5.16,0,7.75,0,1.18-.1,2.37-.17,3.93l-5.41-.33C159.24,201.73,158.35,197.61,157.59,193.25Zm-61.81,18c-1.34,0-1.91-1.07-1.78-3,.1-1.38,1-1.48,2.06-1.43,4.54.21,9.07.43,13.6.58,5.12.16,10.24.39,15.35.31,9.08-.14,18.16-.5,27.25-.74,1.66,0,3.32.08,5,.09,3.83,0,7.67,0,11.51.05,1.48,0,3,.2,4.45.36,2.84.32,5.68.87,8.53,1,3.68.12,7.37-.23,11-.18,8.68.14,17.36.55,26.05.57,7.18,0,14.37-.29,21.55-.53,4.43-.15,8.85-.48,13.28-.65,2.22-.09,2.77.71,2.21,3.19-23.31,1.35-46.56.95-69.8,1.15-19.75.18-39.49,0-59.23-.12C116.49,211.83,106.13,211.51,95.78,211.29ZM119,277.94l-.72-3.6.67-.19.78,3.63Zm17.33-13.56c-2-.58-2.08-.82-1.35-3.41l3.95,1.59C138.35,264,137.68,264.77,136.29,264.38Zm-.49,5.07c-.17-3.49-.17-3.49,2.68-4.42C138.92,268.19,138.58,268.77,135.8,269.45Zm-.63-3.3a27.62,27.62,0,0,1-.18,3,1.25,1.25,0,0,1-.83.83c-1.67.23-3.36.35-5,.5-.55-3.23-.55-3.22,2.28-3.65C132.6,266.64,133.77,266.4,135.17,266.15Zm-4.76,18c-.17-.61-.35-1.23-.54-1.87V284c-4,1.12-5.22.24-5.43-3.81l5,.22c.18.69.34,1.34.51,2v-1.85l5-.77C135.47,283.44,135.63,283.84,130.41,284.17Zm-.11,3.94c-.18-2.93-.18-2.92,2.57-3.53l2-.47C135.17,288,134.89,288.39,130.3,288.11Zm-.44-3.12v3c-3.61,1.24-4.4.7-4.41-3Zm-1.06-24.38-4.51,3.45c-.29-1.3-.44-2-.66-3Zm-5-.61c.17-1.46.58-2.58,2.09-2.78s2.09,1,2.55,2.45Zm.64,6.19-3.45-.75c0-.1,0-.2,0-.3l3-.87Zm-1.89,3.68c-3.55.26-4.72-.85-4.21-4C122.17,266.27,122.07,266.09,122.51,269.87Zm.36,4.8c-3.86-.53-3.5-.51-3.86-4.64C123.24,270.79,123.42,271,122.87,274.67Zm.16-5.34a26,26,0,0,1-.52-2.65l5.65.61v3c-1.4,0-2.88.05-4.34,0C123.53,270.2,123.14,269.69,123,269.33Zm11.5,5.07a7.75,7.75,0,0,1-4.78.47c-.54-.13-.61-2.29-.95-3.73l6.35-.36C135,272.1,135.16,274.11,134.53,274.4Zm-4.69,5c-.11-1.07-.23-2.18-.35-3.29.23-.13.37-.28.52-.29l4.88-.28C135.37,279.08,134.26,279.93,129.84,279.41Zm-.6.24c-1.56-.1-3.05-.12-4.5-.35-.34-.05-.7-.77-.83-1.24a14.16,14.16,0,0,1-.29-2.22c1.46,0,2.67.1,3.85,0,1.4-.15,1.9.38,1.78,1.72C129.19,278.15,129.24,278.77,129.24,279.65Zm-2-13.66,1-2.3C129.34,265.93,129.19,266.24,127.22,266Zm-3.79,5h5c.18,1.4.35,2.67.53,4.06-.75,0-1.31.08-1.87.08C123.11,275.18,123,275.06,123.43,271Zm1,12.74c-3.06-.15-3.64-.83-3.77-4.27C123.86,279.62,124.17,280,124.44,283.77Zm.81,4.66c-3-.24-3.12-.44-3.55-4.27C125,284.44,125.46,285,125.25,288.43Zm4-24.33c1.71-.65,1.91.35,2,1.79l-1.8.3C129.4,265.44,129.33,264.79,129.26,264.1Zm4.71-.57-4-2.9,4,.27ZM130.92,262a3.47,3.47,0,0,1,2.05,3.12c0,.19-.24.59-.39.6a1,1,0,0,1-.82-.33c-.2-.32-.07-.9-.31-1.12-.75-.69-1.52-1.62-2.42-1.8-1.21-.25-1.68.92-1.92,2-.14.62-.26,1.25-.38,1.87a2.49,2.49,0,0,1,.25-3.56A3.31,3.31,0,0,1,130.92,262Zm-4.87-5.34c-1.86-.39-2.54,1.49-3.12,3.31-.74-1.85.13-2.9,1.18-3.87a2.89,2.89,0,0,1,3.5-.49c1.58.81,2,2.28,2.19,4C128.43,258.45,127.37,256.93,126.05,256.65Zm-2.87,4.45c.2.86.39,1.61.6,2.51l-3.67.94c-.28-.92-.53-1.76-.83-2.78Zm-3.41,3.76c-1.47.15-2.74,0-3.19-1.22-.14-.37,1.12-1.26,2-2.25Zm-2.08,3.43-.58.25L115.77,265C117.62,265.45,117.62,265.45,117.69,268.29Zm0,.75c.38,1.38.75,2.76,1.12,4.14l-.58.19c-.38-1.35-.76-2.7-1.15-4.05Zm5.77,10c-3.39-.34-3.42-.37-3.71-4.08C122.82,274.89,123.19,275.29,123.49,279.09Zm-3.64,4.26.82-.22c.37,1.17.73,2.35,1.1,3.53l-.64.23Zm10,6.94c-3.41.1-6.87,0-9.48-2.68a19.46,19.46,0,0,0,17-.43C135.56,289.89,132.66,290.2,129.82,290.29Zm7-7.22c.16,1.65.28,3.12-1.38,4C135.79,285.79,134.59,284,136.8,283.07Zm-.92-.39c-.84-2.45-.48-3.57,1.32-4C137,280.13,137.88,281.85,135.88,282.68Zm-.21-4.47c-.37-2.86-.37-2.86,2-3.69C137.92,277.35,137.69,277.79,135.67,278.21Zm0-4.07c-.49-3.56-.49-3.56,2.4-4.59C138.61,273,138.23,273.78,135.64,274.14Zm13.64,20a4.11,4.11,0,0,1-4.17-3.58c-.05-1.67,1.39-2.65,3.9-2.65,1.5,0,3,1.82,3,3.62A2.5,2.5,0,0,1,149.28,294.17Zm6.65-4.52c-2-.11-2.81-1.48-2.3-3.72-1.32.24-1.46.47-1.48,2.59a4.86,4.86,0,0,1-.69-.54c-.53-.59-1-1.2-1.54-1.81a13.9,13.9,0,0,1,2.55-.91c1.18-.16,2.4,0,3.6-.09,1.81-.1,2.56.37,2.54,1.69A2.82,2.82,0,0,1,155.93,289.65Zm18-1.36c-1.24,0-3.1-1.85-3.11-3s1.14-1.84,2.81-1.8a2.52,2.52,0,0,1,2.54,2.45A2.43,2.43,0,0,1,173.91,288.29Zm-4.71-5.07a5.12,5.12,0,0,0-.67.19c-2.49.86-4.88,1.32-6.39-1.69a17.8,17.8,0,0,1-3.64,1.84,53.14,53.14,0,0,1-5.93.79c-1.67.19-3.73-.44-4.11,2.28-.05.4-1.31.63-2.18,1a2.43,2.43,0,0,1,2-3.09,51.56,51.56,0,0,1,6-.81c2.17-.21,4.1-.73,5-3a1,1,0,0,0,0-.59c-1.4,2.84-4,3-6.62,3.2-.86.05-1.72.05-2.58.07-2.26.07-4.07.75-4.48,3.72-.57-2.18.2-3.55,1.7-4a19.91,19.91,0,0,1,5.69-.91c2.71,0,5-.79,6.07-3.35a9.66,9.66,0,0,0,.66-4.17c-.18-4.24-.56-8.47-.89-13.25.63.48,1.23.71,1.26,1q.6,5,1,10.09c.11,1.33,0,2.68,0,4h.44c0-3,0-6,0-8.94a11.54,11.54,0,0,0-.27-1.52c-.77-5-.53-4.44,4.52-4.13v8.69c0,1.49-.09,3,0,4.48.2,3,1.52,4.34,4.54,4.55,2,.14,4,0,6,0a3.08,3.08,0,0,1,1.78.43c-.22.13-.44.36-.67.37-2.87.11-5.75.21-8.62.25-2.65,0-3.18-.26-4.67-2.39a2.51,2.51,0,0,0,2.24,2.71,22.52,22.52,0,0,0,3.77.2c2.36,0,4.72-.21,7.07-.12,3.05.13,4.88,1.7,5.41,4.35C178.66,281.7,173.93,282.45,169.2,283.22Zm-11.14-29.41c-5.22.24-8.45-2.83-10.57-7a22.8,22.8,0,0,1-1.27-18.57,12.62,12.62,0,0,1,9.41-8.33C166.4,217.28,176,224,178,235.54c1.47,8.63-3.42,16.2-11.64,18a14.46,14.46,0,0,1-1.74.19c0-.14-.06-.28-.08-.42l2.08-.8c-.78-.56-2.4,1-2.47-1.22.58-.1,1.12-.21,1.67-.29a6.91,6.91,0,0,0,6.1-8.68,9.76,9.76,0,0,0-7.46-7.8c-4.12-1.07-7.95-.31-10.89,3-2.4,2.67-2.38,5.78-.84,8.85a21.07,21.07,0,0,0,2.9,4.55c.58.66,1.87.7,3,1.06,0,.64.1,1.35.16,2.07,0,.39.07.78.11,1.17.19,1.88.87,2.77,2.3,2.87h.3a6.71,6.71,0,0,0,1.12-.11c.51-.09,1-.26,1.5-.38,1.17-.29,1.71-.87,1-2.09a4.19,4.19,0,0,1-.2-.9,17.36,17.36,0,0,0,9.77-4.51,1.7,1.7,0,0,1,1.66.06,4.41,4.41,0,0,1,1.52,2.25c.22,1.59-.92,2.65-2.12,3.51a16.06,16.06,0,0,1-9.16,3.2c-1.34,0-2.68,0-4,0h0l-1.08,0h-.31c-2.71-.09-5.41-.28-8.11-.52a16.89,16.89,0,0,1-4.84-1.75c-1.42-.61-2.69-1.44-2.55-3.28s1.36-2.41,2.85-2.92c4.4,3.85,7.44,4.92,9.73,3.5C158.16,254,158.11,253.81,158.06,253.81Zm4.21-.57c.26-.06.64.36,1,.56-.74.4-1.49.79-2.41,1.27l-.87-1A18,18,0,0,1,162.27,253.24Zm-3-3.21c-.79,1.05-1.52.82-2.33.29a9.39,9.39,0,0,1-3.66-10c1.06-3.33,4-5.25,8-5.21,5.94.05,10.48,5.12,9.36,10.44a5.44,5.44,0,0,1-5.52,4.73,1.55,1.55,0,0,1-1.06-.27C162.52,248.5,160.46,248.43,159.26,250Zm5,6.15c-1.82,1.26-2.83,1.19-4-.32C161.68,255.58,163,254.89,164.25,256.18ZM180,247a8.83,8.83,0,0,1-.06-2.05c.18-1.15.48-2.55,1.86-2.49a3.43,3.43,0,0,1,2.19,1.73c.64,1.21.2,2.22-1.22,2.88a2.81,2.81,0,0,0-1.16,2,21.27,21.27,0,0,0,.27,3.25c.12,2.67-1.16,3.71-4.34,3.16.87-1.08,1.61-1.9,2.22-2.82a3.23,3.23,0,0,0,.58-1.73C180.35,249.58,180.14,248.27,180,247Zm-3.83,10.17c-.25,1.85-1.59,2.33-2.82,2.62a29.18,29.18,0,0,1-6.45,1c-5,0-10-.23-15-.52-1.19-.07-2.67-.25-3.29-2.06C158,260.47,167.14,261.49,176.2,257.13Zm-18.25,21a4.46,4.46,0,0,1-1,0c-2.91,0-3.8.59-4.71,3.41-1.43-2.29-.3-4.82,2.08-4.9A19.85,19.85,0,0,1,158,277c.22,0,.37.45.56.69C158.38,277.82,158.18,278.05,158,278.09Zm.11.91c-1.18,2-3,2.29-4.91,2.36C153.52,279.08,154.91,278.4,158.06,279Zm9.19-2.06c5.12-1.21,6.94-.68,6.93,2.11-.69-.13-1.42,0-1.7-.35-1.13-1.25-2.51-1.14-4-1.06A1.93,1.93,0,0,1,167.25,276.94Zm20.66,12.87a3.61,3.61,0,0,1-3.45,3.58,3.68,3.68,0,0,1-3.56-3.68c0-2,1.12-3,3.61-3.06A3.33,3.33,0,0,1,187.91,289.81Zm-3.76-4.17-4-4.84C181.92,280.32,183.48,281.8,184.15,285.64Zm-8.4-6.89c-1.43-5.07-5.5-2.63-8.91-3.07V261.8c1.63-.25,3.43-.47,5.22-.8a13,13,0,0,0,2.81-.83c1.5-.65,2.75-1.57,2.31-3.69.8,0,1.46,0,2.13,0,2.14.09,3.26-.77,3.48-2.92a30.76,30.76,0,0,0,0-4,2.37,2.37,0,0,1,1.35-2.5,3.37,3.37,0,0,0,1.57-2.34,3.24,3.24,0,0,0-1.54-2.23,3.46,3.46,0,0,0-5.49,2.83,21.85,21.85,0,0,0,.36,3.76c.08.76.17,1.53.27,2.4l-3.26-2.93c.39-.64.93-1.43,1.39-2.27A16.47,16.47,0,0,0,179,234.43c-2.21-9.57-9.49-17.92-22.41-15.59-7.65,1.38-12.5,7.31-12.78,15.74-.19,5.45.78,10.64,3.79,14.79-1.12,1.36-2.09,2.56-3.09,3.74-.19.23-.61.55-.73.48-.31-.17-.69-.54-.69-.83a23.61,23.61,0,0,1,.18-3.25c.25-2,.3-3.92-1.07-5.57a2.71,2.71,0,0,0-3.68-.8c-1.77,1-3,3-2.58,4.31a2.57,2.57,0,0,0,2.64,1.84c1.13,0,1.39.53,1.25,1.52a14.06,14.06,0,0,0-.12,1.72c-.1,3.24.25,4.15,4.43,4.63a11,11,0,0,0,1.9,0c1.08-.05,1.78.07,1.88,1.53,0,.69,1.12,1.66,1.9,1.87a57.06,57.06,0,0,0,6.27,1.1c.61.09,1.25.07,2.28.13v14.44c-1.1-.12-2.33-.27-3.57-.38a3.81,3.81,0,0,0-4.07,2.27,1.73,1.73,0,0,1-1.22.86c-3.67-.09-7.34-.28-11.11-.44a5.93,5.93,0,0,1-.16-1.39c.5-4.46,1.06-8.9,1.49-13.36a2.08,2.08,0,0,0-.84-1.74A60.87,60.87,0,0,0,132,259.9c-.86-.21-1.41-.38-1.7-1.31-.89-2.92-2.6-4.23-4.8-4a4.69,4.69,0,0,0-3.5,5.2c0,.1-.06.21-.08.28-1.77.54-3.55,1-5.26,1.63-1.25.45-1.8,1.17-1.36,2.78,1.16,4.32,2,8.71,3,13.08.11.49.15,1,.23,1.58H104.77c-.2-1.66-.39-3.18-.58-4.7h-.11c0,.42-.08.85-.09,1.27-.1,3.61-.24,3.73-4.23,3.05q-1.1-33.12-2.18-66.47h3.36c.44,8,1,15.85,1.27,23.76.28,7.58.17,15.16.41,22.74.15,4.65.66,9.28.9,12.44-.12-8.56-.16-18.59-.41-28.62s-.71-20.17-1.08-30.27l102.11.66c.76,22,1.51,43.9,2.28,66.11C196.1,279.09,185.91,280.22,175.75,278.75Zm-36.56-30.22c-1.32,0-2.35-.52-2.33-1.93a2.67,2.67,0,0,1,2.39-2.73,2,2,0,0,1,2.55,1.66,17.55,17.55,0,0,1,.32,4.89c-.32,2.68-.31,2.89,2.08,4.06.53.26.81,1,1.25,1.6-3.45.55-4.58-.38-4.51-3.56,0-.68,0-1.37.05-2.06C141,249.22,140.53,248.5,139.19,248.53Zm113.25,29.15c-10.76,0-21.52.11-32.27.31-3.38.06-6.76.54-10.14.82-.74.06-1.48.08-2.49.13-.48-7.43-.94-14.64-1.42-22.09,2.53,0,4.81.1,7.09,0,4.51-.24,9-.74,13.53-.87,5.43-.16,10.87,0,16.3,0h10.89c0,1.07,0,2.31,0,3.54.1,5.41.17,10.82.37,16.22C254.35,277.15,254,277.67,252.44,277.68Zm28.23-161.15c1.82-3.14,6.17-4.52,9.13-2.89,2.81,1.56,4.09,6,2.6,9.14a5.31,5.31,0,0,1-5.13,2.78c-.42-.08-.77-.61-1.18-1,.13,1.22-.71,1.06-1.53.91C280.74,124.8,278.66,120,280.67,116.53Zm9.05,10.27c-.08.18-.15.37-.22.55h-5.45c-.06-.11-.13-.21-.19-.31.31-.23.68-.71.93-.66C286.4,126.76,288.27,125.53,289.72,126.8Zm14,152.07c-2.86-.09-5.74.24-8.61.24-4.19,0-8.38,0-12.57,0-2.48,0-5-.06-7.44-.13-2.78-.07-3.55-1.12-3.52-4,.06-6.05.4-12.09.33-18.13-.27-22.91-.56-45.82-1-68.72-.28-13.4-.86-26.79-1.47-40.17-.18-3.84-1-7.64-1.38-11.47a25.42,25.42,0,0,1,0-5.16c.23-2.33,1.19-3.29,3.57-3.37,3.22-.1,6.44.1,9.66.14,2.75,0,5.5.1,8.25.07l1.41,0,1.22,0,1.33,0h.19l.76,0,1.21,0c1.36,0,2.71,0,4.06,0,2.66.11,4.86.93,4.89,4.49,0,1.84.21,3.68.22,5.52,0,4.65,0,9.31,0,14h.51c.21,5.75.37,11.51.65,17.26.9,18.56.94,37.13.76,55.71-.1,11.15.47,22.32.89,33.48.19,5,.64,10,1.19,15C309.26,278,308.3,279,303.68,278.87Zm33.79-99.08c-2,7.89.3,16.21-2.73,24C334.52,195.66,334.85,187.61,337.47,179.79Zm-5.83-18c1.33,7.35,1.11,14.77,1.09,22.18C330.51,176.66,331.49,169.21,331.64,161.79Zm-2,17.48c-.25-2.69-.42-5.38-.63-8.08l.48-.08q1.47,7.84,2.92,15.68l-.82.18C330.18,184.61,329.89,181.94,329.63,179.27Zm1,50c.47-12.83,1-25.65,1.35-38.47,0-2.16,1.89-2.61,2.66-4-.36,3.78-.81,7.55-1.05,11.33-.14,2.33-.78,4.85,1.41,6.77.18.16,0,.75,0,1.14-1.36,8.28-2.73,16.56-4.33,24.86C330.63,230.4,330.61,229.85,330.63,229.31Zm-3.05,25.47c.27-.05.63.39.94.6-.28.28-.55.75-.86.78a7.23,7.23,0,0,1-1.77-.23c0-.14-.05-.29-.07-.44A8.77,8.77,0,0,1,327.58,254.78Zm-4.31-.08a10.47,10.47,0,0,1,4-.84,24.1,24.1,0,0,0-2.69,1,1.35,1.35,0,0,0-.6,1.09,1.3,1.3,0,0,0,1,.77c3.71,0,7.43-.06,11.14-.23.45,0,.86-.84,1.29-1.29-.43-.38-.82-1-1.31-1.09a33,33,0,0,0-3.72-.33,6.78,6.78,0,0,1,5.55.62,2,2,0,0,1,1,1.42,1.76,1.76,0,0,1-1.25,1.11c-3.35.36-6.7.61-10.06.85a15,15,0,0,1-3.6,0,7.13,7.13,0,0,1-2.12-1.21C322.28,255.94,322.63,255,323.27,254.7Zm8.51,1.26c.45-1.63,2.56-1.8,4.2-.22Zm4,22.38a75.86,75.86,0,0,0-8.26-.16c-2.78.12-3.78-1.63-4.12-3.9-.44-3-.72-6-1.1-9.07-.28-2.26-.6-4.52-.92-6.88a55.88,55.88,0,0,0,18.19-.75c.07.14.32.39.3.62q-.82,9.09-1.71,18.17A1.92,1.92,0,0,1,335.81,278.34Z" transform="translate(-3.07 -87.48)"/>
    <path class="cls-1" d="M31.55,88c23,.22,46,.63,69,.61s46-.76,69.06,0C170,99,170.39,109,170.71,119a37.89,37.89,0,0,1-.37,5.09c-.16,1.41-.65,2-2.44,1.89a159.11,159.11,0,0,0-16.05.11c-9.77.62-19.5,1.23-29.32.92-9-.28-17.94.44-26.91.37-15.89-.11-31.77-.46-47.65-.79-4.48-.09-8.94-.46-13.42-.71-1.47-.08-1.86-.71-1.84-2.31,0-3.9-.38-7.81-.52-11.72-.24-7-.43-14-.63-21C31.53,89.94,31.55,89,31.55,88Zm107,7.78c1.7-2.71,2.44-3.09,5.18-2.56,7.31,1.39,14.66.78,22,.55.54-1.58,0-2.37-1.6-2.47-.74-.05-1.49,0-2.24,0-4.31.12-8.62.28-12.93.35-6.09.09-12.19.09-18.28.16-4.14,0-8.29.28-12.42.2-11.79-.23-23.55-.68-35.37-.06-10.94.58-22-.17-32.95-.44-5-.12-10-.47-15-.72,0,7.5,0,14.74,0,22a43.52,43.52,0,0,0,.66,6c.06.44.56,1.15.88,1.16,2.3.1,4.61.06,7.4.06-.74-.41-1-.57-1.33-.72-3.92-2-4-2.36-1.92-6.21C44,107,47.35,100.87,50.77,94.81a1.76,1.76,0,0,1,1.56-.66c1.51.48,2.94,1.19,4.37,1.8,3.13-2.92,5.33.75,8.1,1.26,2.51-4.41,5.44-1.73,8.29-.21a2.76,2.76,0,0,1,3.67-1.28c1.28.55,2.46,1.31,3.71,2,.2-.37.44-.76.63-1.18,1.08-2.41,1.6-2.65,4-1.63,1.52.66,3,1.43,4.56,2.18.19-.41.37-.77.53-1.12,1.28-2.73,2.68-3.4,5.55-2.37,1.66.59,3.2,1.5,4.89,2.3.24-.33.53-.68.77-1,.84-1.28,1.91-1.43,3.3-.88,2.06.81,4.18,1.49,6.35,2.25a3.88,3.88,0,0,1,4.84-2.3c1.88.45,3.72,1.09,5.53,1.64,3.24-1.24,6.17.81,9.32,1.22C132.68,91.88,135.75,95.62,138.51,95.77Zm31.57,25.76c-3.57,0-7-.23-10.32,0-13.58,1.1-27.12.54-40.69-.29-6.82-.42-13.67-.44-20.51-.46-3.73,0-7.47.56-11.2.53-17.26-.15-34.52-.41-51.78-.63-.61,0-1.22,0-1.94,0v4.47c2.8.25,5.65.68,8.5.72,12.14.19,24.27.27,36.41.38,11.57.1,23.13.24,34.7.28,4.65,0,9.31-.18,14-.31,6.67-.19,13.33-.43,20-.61q10.42-.27,20.86-.43c.89,0,1.46-.16,1.62-1.08S169.94,122.47,170.08,121.53Zm0-1c0-1.56,0-3,0-4.41-.33-7.48-.73-15-1-22.42-.17-4.7-.08-4.76-4.94-4.8-6.27,0-12.55,0-18.82,0l-84.61.26c-1.73,0-3.45-.08-5.18-.13-6.33-.16-12.65-.35-19-.46a36.61,36.61,0,0,0-4.14.37,2.26,2.26,0,0,0-.19.52c.44,9.83.88,19.65,1.38,29.48,0,.37.73.71,1.12,1.08-.21-10.36-.41-20.33-.61-30.31a13.9,13.9,0,0,0,2,.43c3.85.19,7.69.38,11.54.49q12.86.39,25.71.69a68.88,68.88,0,0,0,9.31,0,138.93,138.93,0,0,1,20.5-.55c8.51.33,17,.37,25.55.37,5.23,0,10.46-.39,15.69-.49,5.86-.11,11.73-.14,17.59-.12,1.56,0,3.12.32,4.57.47.48,10,.94,19.67,1.41,29.37ZM93.67,93.7c-.8.67-1.78,1.14-2.2,1.91-.76,1.39-1,3.06-1.79,4.44-2.07,3.64-4.29,7.2-6.46,10.78-.86,1.43-1.8,2.82-2.61,4.27-.35.63-.64,1.35.45,1.82a49.79,49.79,0,0,1,4.74,2.36c2.06,1.16,3.51.8,4.5-1.31.66-1.4,1.23-2.84,1.93-4.22,2.54-5,5.13-10,7.69-15,.45-.87.76-1.89-.29-2.43C97.81,95.39,95.88,94.66,93.67,93.7ZM121,97.64a8.89,8.89,0,0,0-1.83-1.93,11.84,11.84,0,0,0-3.09-1c-2.41-.58-3.88.26-4.69,2.59-.4,1.14-.78,2.29-1.23,3.41-1.6,3.93-3.23,7.86-4.84,11.79-1.93,4.73-2.19,5.44,4.22,6.94,2.55.6,2.63.37,3.61-2.07,2-4.9,4.07-9.75,6.08-14.63C119.8,101.17,120.28,99.57,121,97.64ZM92,116c2,1,3.83,1.93,5.63,2.81,2.75,1.35,3.49,1.13,4.7-1.71q3.63-8.56,7.09-17.19c1-2.41.56-3.09-1.91-3.83a10.26,10.26,0,0,1-1.74-.75c-2.71-1.4-3.33-1.11-4.07,1.9a2.85,2.85,0,0,1-.31.6Zm27.9,4c1.26.07,1.7-.55,2.1-1.55,2.47-6.25,5-12.47,7.52-18.7.59-1.49.11-2.37-1.49-2.85-1.2-.36-2.46-.58-3.61-1.05-1.38-.56-2-.11-2.42,1.22a31.16,31.16,0,0,1-1.14,3.42c-2,4.88-4.1,9.72-6.09,14.61-.42,1-.79,2.33.58,3S118.41,119.41,119.93,120Zm-73.15-3.9a19.32,19.32,0,0,1,1.77,1.13A20.25,20.25,0,0,1,50,118.71c1.18,1.14,2.15,1.1,3.2-.16a8.78,8.78,0,0,0,.94-1.45c2.06-3.84,4.1-7.7,6.16-11.55,1.08-2,2.24-4,3.18-6.09a2.16,2.16,0,0,0-.42-2,13.64,13.64,0,0,0-3.2-1.65A2,2,0,0,0,57,96.92c-2.83,5.19-5.68,10.37-8.5,15.57C47.91,113.64,47.39,114.85,46.78,116.13ZM89.06,98.5c-.21-.42-.3-.91-.57-1.07a25.08,25.08,0,0,0-4.3-2.16,2.33,2.33,0,0,0-2,1c-3.14,6-6.14,12.08-9.27,18.1-.81,1.56-1.11,2.7.91,3.43a6,6,0,0,1,1.4,1C77,120,77.18,120,78,118.1a76.67,76.67,0,0,1,10.28-17.89A8.73,8.73,0,0,0,89.06,98.5ZM55.2,116.81A34.17,34.17,0,0,1,58.26,119c1.41,1.27,1.92,1.19,2.84-.42,2.82-4.94,5.7-9.83,8.53-14.76a38.92,38.92,0,0,0,2.46-4.7,2.27,2.27,0,0,0-.57-2c-2.31-2.12-5.36-1.14-6.88,2-1,2.17-2.13,4.33-3.27,6.45C59.3,109.43,57.18,113.23,55.2,116.81Zm71.26,3.83c.32-.3,1.21-.79,1.56-1.54,3-6.25,5.82-12.57,8.82-18.82,1.86-3.86,1.91-3.85-2.28-4.91a2,2,0,0,0-2.75,1.3c-.35.85-.59,1.74-.95,2.59-2.49,5.91-5,11.8-7.48,17.72C122.52,119,123.64,120.64,126.46,120.64Zm-63.52-4.57c1.26,1,2.17,1.83,3.13,2.55,2.3,1.74,3.16,1.47,4.45-1.13,2.7-5.45,5.46-10.87,8.19-16.31a7,7,0,0,0,.59-1.42c.34-1.41-.7-2.7-2.48-3.18a2.4,2.4,0,0,0-3.12,1.64,23.07,23.07,0,0,1-2,4.14C68.88,106.93,65.93,111.43,62.94,116.07Zm104.38,4.48c-.35-8.21-.7-16.1-1-24l-.5-.07c-2.92,8-6.33,15.84-8.6,24.06ZM56.11,96.8l-4.3-2.19c-3.91,7.22-7.71,14.25-11.46,21.16,1.12.91,2.09,1.61,3,2.43s1.38.67,1.84-.32c.84-1.83,1.61-3.69,2.55-5.47C50.42,107.29,53.2,102.2,56.11,96.8Zm91,24.56c2.93-9,5.81-17.7,8.68-26.47-.95-.37-1.32.37-1.7,1.32-2.15,5.34-4.34,10.66-6.52,16l-.43-.17,6.32-16.92-.83-.38C151.41,96.66,151,99,150,101s-2.05,4.37-3,6.58-2,4.53-2.85,6.83-1.53,4.5-2.33,6.85c3.23.69,2.23-2.42,3.69-3.36l-1.09,3.45ZM162,94.87c-1-.19-1.85-.36-2.31,1-1.89,5.54-3.89,11-5.86,16.55-1,2.84-2,5.68-3.1,8.63h2.85C156.41,112.27,159.2,103.61,162,94.87Zm-4.67,0c-4.07,8.44-6.77,17.28-9.17,26.27,1.13.34,1.68.1,2-1,1.74-5.28,3.56-10.53,5.39-15.78,1.08-3.12,2.23-6.22,3.42-9.51Zm-18.45,26.31c1.82.68,2.39-.06,3-1.7,1.86-5.47,4-10.86,6-16.26.82-2.14,1.82-4.22,2.7-6.34a14.61,14.61,0,0,0,.52-1.89l-.56-.43c-.48.42-1.15.76-1.4,1.29-1.25,2.65-2.46,5.32-3.54,8C143.31,109.67,141.12,115.45,138.89,121.22Zm3-26.8-.58-.44a16.83,16.83,0,0,0-1.64,2.16c-.87,1.6-1.64,3.25-2.41,4.9q-4,8.5-7.88,17a24.77,24.77,0,0,0-.92,2.84l.5.35a6,6,0,0,0,1.31-1.37c2.68-5.58,5.34-11.17,7.93-16.79C139.55,100.24,140.7,97.31,141.93,94.42Zm-6,26.78c1.52.63,2.13-.06,2.65-1.42,2.7-7,5.49-14,8.25-21L148.31,95l-.47-.45c-.46.36-1.16.62-1.35,1.09-2.37,5.66-4.65,11.35-7,17C138.33,115.52,137.1,118.35,135.9,121.2ZM165.26,95c-1.71-.71-2.17.18-2.54,1.34q-3.43,10.65-6.9,21.29c-.34,1.05-.73,2.09-1.1,3.14l.51.38c.41-.43,1-.79,1.19-1.29.88-2.78,1.51-5.65,2.5-8.39C160.93,106,163.11,100.55,165.26,95ZM144,94.54l-.75-.38L131,121.05c1,.36,1.59.11,2.1-1.09,3.31-7.81,6.72-15.59,10.09-23.39C143.49,95.91,143.72,95.22,144,94.54Zm1.86.18-.73-.35L133.45,121l.57.46c.4-.34,1-.61,1.18-1,3.19-7.56,6.32-15.14,9.47-22.71C145.07,96.71,145.45,95.71,145.84,94.72ZM85.6,120.49l.2-.63-6.29-2.94L78,120.14ZM92,116.81l-1.72,3.82,7.47-.52.08-.44ZM61.52,120H67l-4.23-3.06Zm13.83,0,.23-.61a22,22,0,0,0-3.93-1.59c-.32-.07-1,1.27-1.6,2.2ZM46.11,118l-1.3,2h5ZM112.69,120l4.52.29,0-.34-3.65-1.64Zm-5.65-.34-3.83-1.93-1.14,1.93Z" transform="translate(-3.07 -87.48)"/>
    <path class="cls-1" d="M216.72,124.85q0-11,0-22.07c0-1.54,0-3.09.1-4.61.15-1.77,1.15-2.55,3-2.49,3.27.1,6.56,0,9.83,0,6.16,0,12.32,0,18.48.07,2.89,0,3.56.55,3.7,3.49s-.12,5.64-.05,8.45c.15,6,.37,12,.6,18.06.26,6.73.61,13.45.85,20.18.09,2.57-.06,2.7-2.7,2.76-3.68.08-7.36.05-11,.06-5.87,0-11.74,0-17.61,0-3.62,0-4.19-.59-4.2-4.22,0-6.56,0-13.11,0-19.67Zm.75,3.4H218c0,5.36,0,10.71,0,16.06,0,3,.65,3.71,3.61,3.72,4.32,0,8.64-.1,13-.1,5.13,0,10.25.12,15.37.08,2.28,0,2.62-.45,2.55-2.66-.11-3.91-.31-7.82-.44-11.73q-.53-15.5-1-31c0-1.43,0-2.87-.09-4.3s-.65-1.84-2.06-1.83c-6.05,0-12.09,0-18.14-.06-3.62,0-7.25-.09-10.87,0-2.26.06-2.84.87-2.74,3.19s.33,4.7.35,7.06C217.5,113.88,217.47,121.06,217.47,128.25Z" transform="translate(-3.07 -87.48)"/>
    <path class="cls-1" d="M340.14,168.15a103.22,103.22,0,0,1-6.47,18.29l-.66-.17c.09-1.2.25-2.41.27-3.62a93.89,93.89,0,0,0,0-10.34c-.54-5.55.75-10.84,1.68-16.2.05-.3.11-.6.13-.68v25.14c.45-1.32,1-2.86,1.48-4.4.18-.44.37-.87.55-1.3Q338.65,171.51,340.14,168.15Z" transform="translate(-3.07 -87.48)"/>
    <path class="cls-1" d="M324.9,208.09c-1.36-5.63-2.61-11.29-4.14-16.87-.78-2.82-2.09-5.49-2.81-8.41.48.95,1,1.88,1.42,2.85A88.69,88.69,0,0,1,325,205.88a9.73,9.73,0,0,1-.11,2.21Z" transform="translate(-3.07 -87.48)"/>
    <path class="cls-1" d="M337.07,166.64q2-8.85,4.09-17.71l-.4-.09-.24,1.2h0a6,6,0,0,1,1.29-4.78C341.53,152.66,339,159.59,337.07,166.64Z" transform="translate(-3.07 -87.48)"/>
    <path class="cls-1" d="M83.65,274.28c-.15-5.64-.26-11.27-.37-16.91-.43-21.87-.81-43.74-1.32-65.61-.07-3.31-.72-6.61-1.08-9.92a2.27,2.27,0,0,0-2.52-2.22c-1.78-.06-3.56-.26-5.34-.21-3.1.07-6.19.38-9.29.41-4.42.05-8.85-.07-13.27-.09-.78,0-1.56.11-2.39.17,0,3.15,0,6.08,0,9-.23,20.85.7,41.66,1.84,62.48.34,6.28.05,12.59.05,18.89h-.54c0-.8,0-1.6,0-2.4-.06-5.52,0-11.05-.24-16.56-.5-9.95-1.5-19.87-1.8-29.82-.38-13.11-.28-26.25-.39-39.37v-2.37H41.22c-7,0-14,.09-21,0-2.22,0-4.34.07-6.11,1.23q1.55,48.9,3.08,97.6H49.57c-.17-2.19-.34-4.33-.51-6.47a37.1,37.1,0,0,1,.71,4.77c.14,1.36.62,2.07,2.27,2.05,10.13-.12,20.26-.1,30.4-.14.49,0,1-.09,1.61-.15C83.91,277.12,83.69,275.7,83.65,274.28ZM41.5,224.47c-.36.44-1.49.27-2.29.33a3,3,0,0,1-.81-.24C36.27,229.5,37,234,39.45,238.43a1.6,1.6,0,0,0,.78.61c1.05.47,1.26,1.35.59,2.06-.47.5-1.43.54-2.18.78-.17-.76-.75-1.83-.45-2.22.66-.86.35-1.39,0-2.12-2-4.36-2.66-8.77-.51-13.3.14-.29.12-.66.26-1,.33-.69.63-1.85,1.09-1.92a2.93,2.93,0,0,1,2.34.83A2.34,2.34,0,0,1,41.5,224.47Zm14.55,18.22a2.32,2.32,0,0,1-2-.16,2.35,2.35,0,0,1-.37-2,5.62,5.62,0,0,1,1.17-1.88c3.23-4.11,3.22-8.57,1.44-13.2a2.37,2.37,0,0,0-1.05-1c-1-.59-2.21-1-1.41-2.57.65-1.25,2.39-1.92,3.37-1.23,1.37.95.89,2,.06,3.1a3,3,0,0,0-.24.4c1.85,4.81,2.89,9.55-.65,14.2C58,240,57.93,241.87,56.05,242.69Z" transform="translate(-3.07 -87.48)"/>
    <path class="cls-1" d="M206.42,279.11c-10.32,0-20.51,1.11-30.67-.36-1.43-5.07-5.5-2.63-8.91-3.07V261.8c1.63-.25,3.43-.47,5.22-.8a13,13,0,0,0,2.81-.83c1.5-.65,2.75-1.57,2.31-3.69.8,0,1.46,0,2.13,0,2.14.09,3.26-.77,3.48-2.92a30.76,30.76,0,0,0,0-4,2.37,2.37,0,0,1,1.35-2.5,3.37,3.37,0,0,0,1.57-2.34,3.24,3.24,0,0,0-1.54-2.23,3.46,3.46,0,0,0-5.49,2.83,21.85,21.85,0,0,0,.36,3.76c.08.76.17,1.53.27,2.4l-3.26-2.93c.39-.64.93-1.43,1.39-2.27A16.47,16.47,0,0,0,179,234.43c-2.21-9.57-9.49-17.92-22.41-15.59-7.65,1.38-12.5,7.31-12.78,15.74-.19,5.45.78,10.64,3.79,14.79-1.12,1.36-2.09,2.56-3.09,3.74-.19.23-.61.55-.73.48-.31-.17-.69-.54-.69-.83a23.61,23.61,0,0,1,.18-3.25c.25-2,.3-3.92-1.07-5.57a2.71,2.71,0,0,0-3.68-.8c-1.77,1-3,3-2.58,4.31a2.57,2.57,0,0,0,2.64,1.84c1.13,0,1.39.53,1.25,1.52a14.06,14.06,0,0,0-.12,1.72c-.1,3.24.25,4.15,4.43,4.63a11,11,0,0,0,1.9,0c1.08-.05,1.78.07,1.88,1.53,0,.69,1.12,1.66,1.9,1.87a57.06,57.06,0,0,0,6.27,1.1c.61.09,1.25.07,2.28.13v14.44c-1.1-.12-2.33-.27-3.57-.38a3.81,3.81,0,0,0-4.07,2.27,1.73,1.73,0,0,1-1.22.86c-3.67-.09-7.34-.28-11.11-.44a5.93,5.93,0,0,1-.16-1.39c.5-4.46,1.06-8.9,1.49-13.36a2.08,2.08,0,0,0-.84-1.74A60.87,60.87,0,0,0,132,259.9c-.86-.21-1.41-.38-1.7-1.31-.89-2.92-2.6-4.23-4.8-4a4.69,4.69,0,0,0-3.5,5.2c0,.1-.06.21-.08.28-1.77.54-3.55,1-5.26,1.63-1.25.45-1.8,1.17-1.36,2.78,1.16,4.32,2,8.71,3,13.08.11.49.15,1,.23,1.58H104.77c-.2-1.66-.39-3.18-.58-4.7h-.11c0,.42-.08.85-.09,1.27-.1,3.61-.24,3.73-4.23,3.05q-1.1-33.12-2.18-66.47h3.36c.44,8,1,15.85,1.27,23.76.28,7.58.17,15.16.41,22.74.15,4.65.66,9.28.9,12.44-.12-8.56-.16-18.59-.41-28.62s-.71-20.17-1.08-30.27l102.11.66C204.9,235,205.65,256.9,206.42,279.11Z" transform="translate(-3.07 -87.48)"/>
    <path class="cls-1" d="M206.08,182.84c-.47-5.85-1.08-11.68-1.52-17.53-.4-5.28-.66-10.56-.94-15.85-.08-1.68-.83-2.77-2.49-3-5.17-.78-10.35-2-15.54-2.11-14.37-.24-28.76-.09-43.14.11-6.83.1-13.66.76-20.5,1-3.6.13-4.51.93-4.22,4.54.42,5.28,1,10.54,1.24,15.83.34,7.58.47,15.17.61,22.76,0,2.81,1.13,4,4.16,4,7.12,0,14.25,0,21.37,0h27.1v-.57c2.82,0,5.64.05,8.46,0q10.37-.18,20.72-.45c3.23-.09,4.32-1.07,4.68-4.3A22.26,22.26,0,0,0,206.08,182.84ZM157,145.61a17.21,17.21,0,0,1,3.19-.5,25.67,25.67,0,0,1,3.41.63A1.8,1.8,0,0,1,164.7,147a1.74,1.74,0,0,1-1,1.35,13.66,13.66,0,0,1-3.55.32,10.85,10.85,0,0,1-3-.48c-.53-.18-1.28-.83-1.27-1.24A2,2,0,0,1,157,145.61Zm37.34,42.84c-3.48,0-7-.54-10.45-.53-8.1,0-16.2.36-24.3.37-8.39,0-16.78-.26-25.18-.3a46,46,0,0,0-5.82.63c-2.5.3-3.34-.55-3.38-3,0-3.22-.33-6.43-.47-9.64-.25-5.23-.44-10.47-.7-15.69-.17-3.38-.37-6.76-.63-10.13-.08-1,.29-1.39,1.18-1.49a19.51,19.51,0,0,1,2.4-.24c6.61.08,13.23.06,19.84.31,6,.23,12,.91,18.08,1.09,8.57.25,17.14.24,25.71.31a25.31,25.31,0,0,0,2.57-.3c3.65-.36,5.28,1,5.42,4.71.06,1.49,0,3,0,4.48v4.32h-.3c0,3.68-.06,7.35,0,11,.06,3,.19,6,.47,8.95C199.21,187.05,198.14,188.5,194.35,188.45Z" transform="translate(-3.07 -87.48)"/>
    <path class="cls-1" d="M308.75,273.35c-.55-5-1-10-1.19-15-.42-11.16-1-22.33-.89-33.48.18-18.58.14-37.15-.76-55.71-.28-5.75-.44-11.51-.65-17.26h-.51c0-4.66,0-9.32,0-14,0-1.84-.21-3.68-.22-5.52,0-3.56-2.23-4.38-4.89-4.49-3.38-.13-6.78.15-10.18.19-2.75,0-5.5,0-8.25-.07-3.22,0-6.44-.24-9.66-.14-2.38.08-3.34,1-3.57,3.37a25.42,25.42,0,0,0,0,5.16c.39,3.83,1.2,7.63,1.38,11.47.61,13.38,1.19,26.77,1.47,40.17.47,22.9.76,45.81,1,68.72.07,6-.27,12.08-.33,18.13,0,2.87.74,3.92,3.52,4,2.48.07,5,.12,7.44.13,4.19,0,8.38,0,12.57,0,2.87,0,5.75-.33,8.61-.24C308.3,279,309.26,278,308.75,273.35ZM302,275.63c-1.91.29-3.88.17-5.82.31-2.75.2-5.49.55-8.24.67-1.81.08-3.63.15-5.45.15-1.17,0-2.34,0-3.51-.11-3.83-.26-4.48-1.16-4.46-5q.07-12.94.14-25.89c0-5.18,0-10.36,0-15.54h-.43c0-13.92.12-27.85-.05-41.77-.1-8.1-.72-16.18-1.06-24.28-.2-4.83-.24-9.66-.5-14.49-.18-3.32-.7-6.63-.88-10a56.91,56.91,0,0,1,.17-7,1.77,1.77,0,0,1,1.22-1.18c2.38-.3,4.77-.54,7.16-.63q4.57-.17,9.16-.24c1.65,0,3.31,0,5-.06a27.41,27.41,0,0,1,5.28.44c1.28.25,2.07.84,2,2.68-.17,6.19,0,12.4.15,18.6.19,8.11.58,16.21.69,24.32.31,21.62.38,43.25.83,64.88.2,10,1,20,1.62,30.07C305.21,274.57,304.91,275.2,302,275.63Z" transform="translate(-3.07 -87.48)"/>
    <path class="cls-1" d="M253.93,259.46c0-1.23,0-2.47,0-3.54H243c-5.43,0-10.87-.12-16.3,0-4.52.13-9,.63-13.53.87-2.28.12-4.56,0-7.09,0,.48,7.45.94,14.66,1.42,22.09,1-.05,1.75-.07,2.49-.13,3.38-.28,6.76-.76,10.14-.82,10.75-.2,21.51-.28,32.27-.31,1.59,0,1.91-.53,1.86-2C254.1,270.28,254,264.87,253.93,259.46ZM231,272.7a4.33,4.33,0,0,1-3.74-4.05c0-1.26,1.79-2.34,3.9-2.33s3.18.94,3.21,2.54C234.41,270.89,232.78,272.74,231,272.7Z" transform="translate(-3.07 -87.48)"/>
    <path class="cls-1" d="M252.47,212.38l-47.25.64v20.77h48.05Q252.85,222.58,252.47,212.38Zm-22.12,18.47c-2,0-3.36-1.11-3.39-2.87a4.13,4.13,0,0,1,3.81-4.14,3.5,3.5,0,0,1,3.39,3.62A3.55,3.55,0,0,1,230.35,230.85Z" transform="translate(-3.07 -87.48)"/>
    <path class="cls-1" d="M205.16,234.71c.32,7.2.64,14.28,1,21.18,5.14,0,10,.13,14.76,0,4.64-.16,9.27-.79,13.91-.91,5.34-.13,10.68.07,16,.1,1,0,2-.1,2.75-.14v-20.2Zm25.12,19.15c-2.24,0-3.6-1.52-3.56-3.88a3.69,3.69,0,0,1,3.72-3.86c1.84,0,3.67,2.44,3.6,4.74C234,252.53,232.26,253.9,230.28,253.86Z" transform="translate(-3.07 -87.48)"/>
    <path class="cls-1" d="M176.35,250.13a1.7,1.7,0,0,0-1.66-.06,17.36,17.36,0,0,1-9.77,4.51,4.19,4.19,0,0,0,.2.9c.69,1.22.15,1.8-1,2.09-.5.12-1,.29-1.5.38a6.71,6.71,0,0,1-1.12.11c-1.64,0-2.4-.88-2.6-2.88,0-.39-.07-.78-.11-1.17-.06-.72-.11-1.43-.16-2.07-1.12-.36-2.41-.4-3-1.06a21.07,21.07,0,0,1-2.9-4.55c-1.54-3.07-1.56-6.18.84-8.85,2.94-3.27,6.77-4,10.89-3a9.76,9.76,0,0,1,7.46,7.8,6.91,6.91,0,0,1-6.1,8.68c-.55.08-1.09.19-1.67.29.07,2.25,1.69.66,2.47,1.22l-2.08.8c0,.14.05.28.08.42a14.46,14.46,0,0,0,1.74-.19c8.22-1.8,13.11-9.37,11.64-18-2-11.53-11.59-18.26-22.36-15.61a12.62,12.62,0,0,0-9.41,8.33,22.8,22.8,0,0,0,1.27,18.57c2.12,4.15,5.35,7.22,10.57,7,.05,0,.1.17.16.25-2.29,1.42-5.33.35-9.73-3.5-1.49.51-2.71,1.22-2.85,2.92s1.13,2.67,2.55,3.28a16.89,16.89,0,0,0,4.84,1.75c2.8.25,5.61.44,8.42.53,1.72.06,3.43.08,5.14,0a16.06,16.06,0,0,0,9.16-3.2c1.2-.86,2.34-1.92,2.12-3.51A4.41,4.41,0,0,0,176.35,250.13Zm-29.44-9.75h-.24v-8.71h.24Zm.44-10.17c.34-.77.51-1.29.78-1.76,4.93-8.59,20.52-9.23,25.47-1.58a19.33,19.33,0,0,1,2.76,15.82c-.37,1.49-1,2.91-1.48,4.37l-.43-.14c.14-.42.26-.85.44-1.26a19.56,19.56,0,0,0,.05-15.31,12,12,0,0,0-9.22-7.77c-5.56-1-10.7-.28-15,3.6A35.75,35.75,0,0,0,147.35,230.21Zm1.29,16.51c2.23,3.63,5.15,5.93,9.56,6.42C154.53,253.76,149.44,250.32,148.64,246.72Z" transform="translate(-3.07 -87.48)"/>
    <path class="cls-1" d="M255.88,210.87c-23.31,1.35-46.56.95-69.8,1.15-19.75.18-39.49,0-59.23-.12-10.36-.07-20.72-.39-31.07-.61-1.34,0-1.91-1.07-1.78-3,.1-1.38,1-1.48,2.06-1.43,4.54.21,9.07.43,13.6.58,5.12.16,10.24.39,15.35.31,9.08-.14,18.16-.5,27.25-.74,1.66,0,3.32.08,5,.09,3.83,0,7.67,0,11.51.05,1.48,0,3,.2,4.45.36,2.84.32,5.68.87,8.53,1,3.68.12,7.37-.23,11-.18,8.68.14,17.36.55,26.05.57,7.18,0,14.37-.29,21.55-.53,4.43-.15,8.85-.48,13.28-.65C255.89,207.59,256.44,208.39,255.88,210.87Z" transform="translate(-3.07 -87.48)"/>
    <path class="cls-1" d="M339.9,258.2q-.82,9.09-1.71,18.17a1.92,1.92,0,0,1-2.38,2,75.86,75.86,0,0,0-8.26-.16c-2.78.12-3.78-1.63-4.12-3.9-.44-3-.72-6-1.1-9.07-.28-2.26-.6-4.52-.92-6.88a55.88,55.88,0,0,0,18.19-.75C339.67,257.72,339.92,258,339.9,258.2Z" transform="translate(-3.07 -87.48)"/>
    <path class="cls-1" d="M170.68,245.5a5.44,5.44,0,0,1-5.52,4.73,1.55,1.55,0,0,1-1.06-.27c-1.58-1.46-3.64-1.53-4.84.07-.79,1.05-1.52.82-2.33.29a9.39,9.39,0,0,1-3.66-10c1.06-3.33,4-5.25,8-5.21C167.26,235.11,171.8,240.18,170.68,245.5Z" transform="translate(-3.07 -87.48)"/>
    <path class="cls-1" d="M182.7,285.44c-4-3.74-8.77-3-13.5-2.22a5.12,5.12,0,0,0-.67.19c-2.49.86-4.88,1.32-6.39-1.69a17.8,17.8,0,0,1-3.64,1.84,53.14,53.14,0,0,1-5.93.79c-1.67.19-3.73-.44-4.11,2.28-.05.4-1.31.63-2.18,1a2.43,2.43,0,0,1,2-3.09,51.56,51.56,0,0,1,6-.81c2.17-.21,4.1-.73,5-3a1,1,0,0,0,0-.59c-1.4,2.84-4,3-6.62,3.2-.86.05-1.72.05-2.58.07-2.26.07-4.07.75-4.48,3.72-.57-2.18.2-3.55,1.7-4a19.91,19.91,0,0,1,5.69-.91c2.71,0,5-.79,6.07-3.35a9.66,9.66,0,0,0,.66-4.17c-.18-4.24-.56-8.47-.89-13.25.63.48,1.23.71,1.26,1q.6,5,1,10.09c.11,1.33,0,2.68,0,4h.44c0-3,0-6,0-8.94a11.54,11.54,0,0,0-.27-1.52c-.77-5-.53-4.44,4.52-4.13v8.69c0,1.49-.09,3,0,4.48.2,3,1.52,4.34,4.54,4.55,2,.14,4,0,6,0a3.08,3.08,0,0,1,1.78.43c-.22.13-.44.36-.67.37-2.87.11-5.75.21-8.62.25-2.65,0-3.18-.26-4.67-2.39a2.51,2.51,0,0,0,2.24,2.71,22.52,22.52,0,0,0,3.77.2c2.36,0,4.72-.21,7.07-.12C180.34,281.22,182.17,282.79,182.7,285.44Z" transform="translate(-3.07 -87.48)"/>
    <path class="cls-1" d="M34.25,168.6a20.66,20.66,0,0,1-11.25.08,2.1,2.1,0,0,1-1.27-1.3,25.57,25.57,0,0,1-.64-4.76c0-.41.8-1.26,1.13-1.21,5.14.76,10.2-.26,15.28-.6a8.18,8.18,0,0,1,.82.07c.06.68.13,1.19.16,1.7C38.76,167.58,39.18,167,34.25,168.6Z" transform="translate(-3.07 -87.48)"/>
    <path class="cls-1" d="M66.72,168.77a21.73,21.73,0,0,1-9.92,0c-1-.2-1.53-.61-1.64-1.65-.14-1.48-.48-2.95-.53-4.43,0-.44.77-1.32,1.08-1.27,5.31.75,10.53-.35,15.79-.61a1.75,1.75,0,0,1,.29.11C72.66,167.58,72.82,167.22,66.72,168.77Z" transform="translate(-3.07 -87.48)"/>
    <path class="cls-1" d="M289.8,113.64c-3-1.63-7.31-.25-9.13,2.89-2,3.47.07,8.27,3.89,9,.82.15,1.66.31,1.53-.91.41.35.76.88,1.18,1a5.31,5.31,0,0,0,5.13-2.78C293.89,119.68,292.61,115.2,289.8,113.64Zm-3.65,7.73-.67-.31,1.35-6.37.59.06c-.09,1.34-.18,2.69-.27,4.11l2.46-.76.26.36Z" transform="translate(-3.07 -87.48)"/>
    <path class="cls-1" d="M223.2,193.2c-.34,4.75-.69,9.58-1,14.55-1.77,0-3.25.07-4.73-.05a1.55,1.55,0,0,1-1-1c-.94-4.37-1.8-8.76-2.66-13Z" transform="translate(-3.07 -87.48)"/>
    <path class="cls-1" d="M335,206.09c-1.36,8.28-2.73,16.56-4.33,24.86,0-.55,0-1.1,0-1.64.47-12.83,1-25.65,1.35-38.47,0-2.16,1.89-2.61,2.66-4-.36,3.78-.81,7.55-1.05,11.33-.14,2.33-.78,4.85,1.41,6.77C335.18,205.11,335,205.7,335,206.09Z" transform="translate(-3.07 -87.48)"/>
    <path class="cls-1" d="M28.54,179a3.26,3.26,0,0,1-2.24-1.8,38.68,38.68,0,0,1-1.46-5.5c1.11,0,1.73,0,2.35,0,2.28-.16,4.57-.32,6.84-.57,1.16-.12,1.79,0,1.84,1.44C36.13,180.05,34,179.12,28.54,179Z" transform="translate(-3.07 -87.48)"/>
    <path class="cls-1" d="M69.59,171.43a47.48,47.48,0,0,1-.64,5.89c-.13.61-1.28,1.27-2,1.4-1.51.25-3.09.07-4.64.19A2,2,0,0,1,60,177.5c-.62-1.82-1.08-3.69-1.75-6.07Z" transform="translate(-3.07 -87.48)"/>
    <path class="cls-1" d="M163.36,202.51c0,1.18-.1,2.37-.17,3.93l-5.41-.33c1.46-4.38.57-8.5-.19-12.86,1.68,0,3.17,0,4.65,0,1.16,0,1.14.81,1.15,1.52C163.42,197.34,163.4,199.92,163.36,202.51Z" transform="translate(-3.07 -87.48)"/>
    <path class="cls-1" d="M240.42,197.28l-.32,0c.25,2.91.48,5.81.75,8.71.11,1.17-.42,1.4-1.5,1.13q-.91-10.58-1.82-21.09c1.34-.35,1.71.1,1.75,1.22a54.21,54.21,0,0,0,.91,8.4c-.15-2.79-.27-5.59-.46-8.38-.07-1.09.3-1.48,1.53-1.15l1,20.87-.73.09C241.13,203.84,240.78,200.56,240.42,197.28Z" transform="translate(-3.07 -87.48)"/>
    <path class="cls-1" d="M61.17,160.45a2.23,2.23,0,0,1-3-1.38A26.3,26.3,0,0,1,56,153.2a38,38,0,0,1-.47-6.33c0-1.18.69-2.21,1-3.35.46-1.92,2.4-2.65,4.17-3.44-2.67,5.06-2.28,10.31-1.5,15.73l-.67.16Z" transform="translate(-3.07 -87.48)"/>
    <path class="cls-1" d="M65.3,159.21c-.44,1.39-.49,1.37-2.33,1.34.23-1.36.48-2.68.67-4,0-.19-.21-.42-.23-.64a10.13,10.13,0,0,1-.09-3,2.06,2.06,0,0,0,0-1.37,11.44,11.44,0,0,1,.11-3.56c-1-.43-1.38-2.27-.29-3.66-1.17-.82-1.36-1.74-.74-3.91.24.18.54.29.64.5C65.91,146.76,67.36,152.78,65.3,159.21Z" transform="translate(-3.07 -87.48)"/>
    <path class="cls-1" d="M62.79,159.43a4.26,4.26,0,0,1-.33,1.22c-.39-.25-1-.42-1.12-.77a32.3,32.3,0,0,1-1.77-6.09,24,24,0,0,1,1.3-12h.55c.39,4.5.79,9,1.16,13.51C62.69,156.68,62.77,158.06,62.79,159.43Z" transform="translate(-3.07 -87.48)"/>
    <path class="cls-1" d="M245.67,164c-.29,6.7-.66,13.4-1,20.1,0,.32-.3.61-.47.92l-.62-.13c0-1.65-.1-3.3,0-4.93.37-5.15-1.36-10.25-.33-15.39.13-.63.9-1.14,1.37-1.7C245,163.19,245.68,163.59,245.67,164Z" transform="translate(-3.07 -87.48)"/>
    <path class="cls-1" d="M241.26,185.17c-1.58.48-2.35.19-2.75-1.64-1-4.76-2.37-9.46-3.58-14.19l2-.64C238.36,174.13,239.8,179.64,241.26,185.17Z" transform="translate(-3.07 -87.48)"/>
    <path class="cls-1" d="M145.45,256.08c-3.45.55-4.58-.38-4.51-3.56,0-.68,0-1.37.05-2.06,0-1.24-.46-2-1.8-1.93s-2.35-.52-2.33-1.93a2.67,2.67,0,0,1,2.39-2.73,2,2,0,0,1,2.55,1.66,17.55,17.55,0,0,1,.32,4.89c-.32,2.68-.31,2.89,2.08,4.06C144.73,254.74,145,255.5,145.45,256.08Z" transform="translate(-3.07 -87.48)"/>
    <path class="cls-1" d="M182.8,247a2.81,2.81,0,0,0-1.16,2,21.27,21.27,0,0,0,.27,3.25c.12,2.67-1.16,3.71-4.34,3.16.87-1.08,1.61-1.9,2.22-2.82a3.23,3.23,0,0,0,.58-1.73c0-1.31-.23-2.62-.34-3.93a8.83,8.83,0,0,1-.06-2.05c.18-1.15.48-2.55,1.86-2.49a3.43,3.43,0,0,1,2.19,1.73C184.66,245.36,184.22,246.37,182.8,247Z" transform="translate(-3.07 -87.48)"/>
    <path class="cls-1" d="M246.24,206.65l-1.64.19c-.09-1.74-.22-3.39-.24-5,0-4.88-.07-9.77,0-14.66,0-.48.51-1,.77-1.44a4.06,4.06,0,0,1,.6,1.38C245.91,193.56,246.07,200.05,246.24,206.65Z" transform="translate(-3.07 -87.48)"/>
    <path class="cls-1" d="M243,183.91a4,4,0,0,1-.4,1.28c-.3-.26-.75-.47-.88-.81a26.22,26.22,0,0,1-1.79-13c2.55-.05,2.52,0,2.6,2.26C242.66,177,242.88,180.47,243,183.91Z" transform="translate(-3.07 -87.48)"/>
    <path class="cls-1" d="M243.87,206c-.05.35-.44.65-.68,1-.2-.3-.55-.58-.59-.9a29.79,29.79,0,0,1-.31-3.77c0-5.33,0-10.66,0-16.28l1-.14c.11.18.22.27.22.36q.24,8.78.44,17.54A13.81,13.81,0,0,1,243.87,206Z" transform="translate(-3.07 -87.48)"/>
    <path class="cls-1" d="M345,168.41c-.91,3.24-1.87,6.47-2.71,9.73-.45,1.72-.56,3.52-1,5.24-1.09,4.14-2.28,8.25-3.43,12.37l-.63-.25C339,186.24,340.58,176.91,345,168.41Z" transform="translate(-3.07 -87.48)"/>
    <path class="cls-1" d="M176.2,257.13c-.25,1.85-1.59,2.33-2.82,2.62a29.18,29.18,0,0,1-6.45,1c-5,0-10-.23-15-.52-1.19-.07-2.67-.25-3.29-2.06C158,260.47,167.14,261.49,176.2,257.13Z" transform="translate(-3.07 -87.48)"/>
    <path class="cls-1" d="M337.47,179.79c-2,7.89.3,16.21-2.73,24C334.52,195.66,334.85,187.61,337.47,179.79Z" transform="translate(-3.07 -87.48)"/>
    <path class="cls-1" d="M68.5,154.9a22.22,22.22,0,0,1-2,5.71l-.46-.18c.28-1.9.62-3.79.82-5.7a36.43,36.43,0,0,0,.35-6,9.49,9.49,0,0,0-1.28-3.33c-.63-1.32-.14-2,1.4-2.54a41.15,41.15,0,0,1,1.48,6A26.84,26.84,0,0,1,68.5,154.9Z" transform="translate(-3.07 -87.48)"/>
    <path class="cls-1" d="M324.31,218.24q-3.45-11.93-6.89-23.87l.41-.11C320.31,202.2,325.24,209.45,324.31,218.24Z" transform="translate(-3.07 -87.48)"/>
    <path class="cls-1" d="M250.63,173.77c-1.18,2.42-2.2,4.91-3.39,7.32-.25.5-.94.78-1.43,1.15l-.85-1.76c1-2.69,1.92-5.43,3-8.11.12-.29,1.23-.35,1.82-.22C250.57,172.31,251.12,172.75,250.63,173.77Z" transform="translate(-3.07 -87.48)"/>
    <path class="cls-1" d="M338.83,255.85a1.76,1.76,0,0,1-1.25,1.11c-3.35.36-6.7.61-10.06.85a15,15,0,0,1-3.6,0,7.13,7.13,0,0,1-2.12-1.21c.48-.65.83-1.58,1.47-1.89a10.47,10.47,0,0,1,4-.84,24.1,24.1,0,0,0-2.69,1,1.35,1.35,0,0,0-.6,1.09,1.3,1.3,0,0,0,1,.77c3.71,0,7.43-.06,11.14-.23.45,0,.86-.84,1.29-1.29-.43-.38-.82-1-1.31-1.09a33,33,0,0,0-3.72-.33,6.78,6.78,0,0,1,5.55.62A2,2,0,0,1,338.83,255.85Z" transform="translate(-3.07 -87.48)"/>
    <path class="cls-1" d="M158.61,286.86a2.82,2.82,0,0,1-2.68,2.79c-2-.11-2.81-1.48-2.3-3.72-1.32.24-1.46.47-1.48,2.59a4.86,4.86,0,0,1-.69-.54c-.53-.59-1-1.2-1.54-1.81a13.9,13.9,0,0,1,2.55-.91c1.18-.16,2.4,0,3.6-.09C157.88,285.07,158.63,285.54,158.61,286.86Z" transform="translate(-3.07 -87.48)"/>
    <path class="cls-1" d="M332.73,184c-2.22-7.31-1.24-14.76-1.09-22.18C333,169.14,332.75,176.56,332.73,184Z" transform="translate(-3.07 -87.48)"/>
    <path class="cls-1" d="M135.15,270.78c-.19,1.32,0,3.33-.62,3.62a7.75,7.75,0,0,1-4.78.47c-.54-.13-.61-2.29-.95-3.73Z" transform="translate(-3.07 -87.48)"/>
    <path class="cls-1" d="M128.94,275.09c-.75,0-1.31.08-1.87.08-4,0-4.06-.11-3.64-4.14h5C128.59,272.43,128.76,273.7,128.94,275.09Z" transform="translate(-3.07 -87.48)"/>
    <path class="cls-1" d="M135.17,266.15a27.62,27.62,0,0,1-.18,3,1.25,1.25,0,0,1-.83.83c-1.67.23-3.36.35-5,.5-.55-3.23-.55-3.22,2.28-3.65C132.6,266.64,133.77,266.4,135.17,266.15Z" transform="translate(-3.07 -87.48)"/>
    <path class="cls-1" d="M149,287.94c-2.51,0-3.95,1-3.9,2.65a4.11,4.11,0,0,0,4.17,3.58,2.5,2.5,0,0,0,2.77-2.61C152,289.76,150.51,287.94,149,287.94Zm-.38,5.53c-1.37,0-2.21-1-2.18-3.27.28-.17.81-.72,1.38-.78a2.38,2.38,0,0,1,2.6,2.18A1.71,1.71,0,0,1,148.63,293.47Z" transform="translate(-3.07 -87.48)"/>
    <path class="cls-1" d="M176.15,285.91a2.43,2.43,0,0,1-2.24,2.38c-1.24,0-3.1-1.85-3.11-3s1.14-1.84,2.81-1.8A2.52,2.52,0,0,1,176.15,285.91Z" transform="translate(-3.07 -87.48)"/>
    <path class="cls-1" d="M129.25,277.54c-.06.61,0,1.23,0,2.11-1.56-.1-3.05-.12-4.5-.35-.34-.05-.7-.77-.83-1.24a14.16,14.16,0,0,1-.29-2.22c1.46,0,2.67.1,3.85,0C128.87,275.67,129.37,276.2,129.25,277.54Z" transform="translate(-3.07 -87.48)"/>
    <path class="cls-1" d="M129.84,279.41c-.11-1.07-.23-2.18-.35-3.29.23-.13.37-.28.52-.29l4.88-.28C135.37,279.08,134.26,279.93,129.84,279.41Z" transform="translate(-3.07 -87.48)"/>
    <path class="cls-1" d="M129.91,282.34l0,0V284c-4,1.12-5.22.24-5.43-3.81l5,.22C129.58,281.05,129.74,281.7,129.91,282.34Z" transform="translate(-3.07 -87.48)"/>
    <path class="cls-1" d="M130.41,284.17c-.17-.61-.35-1.23-.54-1.87l0,0v-1.85l5-.77C135.47,283.44,135.63,283.84,130.41,284.17Z" transform="translate(-3.07 -87.48)"/>
    <path class="cls-1" d="M332.4,186.79l-.82.18c-1.4-2.36-1.69-5-1.95-7.7s-.42-5.38-.63-8.08l.48-.08Q330.95,179,332.4,186.79Z" transform="translate(-3.07 -87.48)"/>
    <path class="cls-1" d="M184.51,286.65c-2.49.08-3.64,1.06-3.61,3.06a3.68,3.68,0,0,0,3.56,3.68,3.61,3.61,0,0,0,3.45-3.58A3.33,3.33,0,0,0,184.51,286.65Zm.23,5.78c-1.85,0-3.07-1.06-3-2.52s1.42-1.83,2.65-1.91a2.27,2.27,0,0,1,2.45,2.31A2.13,2.13,0,0,1,184.74,292.43Z" transform="translate(-3.07 -87.48)"/>
    <path class="cls-1" d="M346.23,178.58c-2.65,6.46-4.11,13.42-8.54,19.14l8.05-19.35Z" transform="translate(-3.07 -87.48)"/>
    <path class="cls-1" d="M71.63,168.18c-1.26,3-12.71,4-15.53,1.32A32.76,32.76,0,0,0,71.63,168.18Z" transform="translate(-3.07 -87.48)"/>
    <path class="cls-1" d="M38.3,168.45c-.54.5-1,1.35-1.61,1.43-3.62.49-7.26.9-10.9,1.1-1.06.06-2.17-.66-3.25-1,0-.16.09-.32.13-.49A36.92,36.92,0,0,0,38.3,168.45Z" transform="translate(-3.07 -87.48)"/>
    <path class="cls-1" d="M128.16,267.29v3c-1.4,0-2.88.05-4.34,0-.29,0-.68-.53-.79-.89a26,26,0,0,1-.52-2.65Z" transform="translate(-3.07 -87.48)"/>
    <path class="cls-1" d="M130.3,288.11c-.18-2.93-.18-2.92,2.57-3.53l2-.47C135.17,288,134.89,288.39,130.3,288.11Z" transform="translate(-3.07 -87.48)"/>
    <path class="cls-1" d="M137.33,287.18c-1.77,2.71-4.67,3-7.51,3.11-3.41.1-6.87,0-9.48-2.68A19.46,19.46,0,0,0,137.33,287.18Z" transform="translate(-3.07 -87.48)"/>
    <path class="cls-1" d="M226.78,201.13c.63-1.67,2-3.39.38-5-.55-.55-1.95-.24-3-.33-.09-.94,1.08-2.16,2.73-2.41,1.37-.21,2,.56,2.26,1.78A5.92,5.92,0,0,1,226.78,201.13Z" transform="translate(-3.07 -87.48)"/>
    <path class="cls-1" d="M347.17,186c-.3.48-.6,1-.89,1.45-2.57,4.22-5.16,8.43-7.69,12.67a16.15,16.15,0,0,0-1,2.47l.05,0-.05,0c-.3.18-.62.39-1.19.76A58.06,58.06,0,0,1,347.17,186Z" transform="translate(-3.07 -87.48)"/>
    <path class="cls-1" d="M323.16,219.49A32.71,32.71,0,0,1,318,206C319.46,210.61,322.63,214.55,323.16,219.49Z" transform="translate(-3.07 -87.48)"/>
    <path class="cls-1" d="M129.86,285v3c-3.61,1.24-4.4.7-4.41-3Z" transform="translate(-3.07 -87.48)"/>
    <path class="cls-1" d="M122.87,274.67c-3.86-.53-3.5-.51-3.86-4.64C123.24,270.79,123.42,271,122.87,274.67Z" transform="translate(-3.07 -87.48)"/>
    <path class="cls-1" d="M222.78,192.44a25.32,25.32,0,0,1-9.44-.1C215.33,190.81,221.33,190.83,222.78,192.44Z" transform="translate(-3.07 -87.48)"/>
    <path class="cls-1" d="M122.51,269.87c-3.55.26-4.72-.85-4.21-4C122.17,266.27,122.07,266.09,122.51,269.87Z" transform="translate(-3.07 -87.48)"/>
    <path class="cls-1" d="M158.6,277.68c-.22.14-.42.37-.65.41a4.46,4.46,0,0,1-1,0c-2.91,0-3.8.59-4.71,3.41-1.43-2.29-.3-4.82,2.08-4.9A19.85,19.85,0,0,1,158,277C158.26,277,158.41,277.44,158.6,277.68Z" transform="translate(-3.07 -87.48)"/>
    <path class="cls-1" d="M30.52,160.55c.26-1.84.5-3.64.76-5.52a1.71,1.71,0,0,0-.48.09,3.67,3.67,0,0,0-.57.44c-.33-.66-.63-1.25-1-1.92,2.53.54,3,1.13,2.54,3.24l.86-.52C34,159.07,33.31,160.54,30.52,160.55Z" transform="translate(-3.07 -87.48)"/>
    <path class="cls-1" d="M124.44,283.77c-3.06-.15-3.64-.83-3.77-4.27C123.86,279.62,124.17,280,124.44,283.77Z" transform="translate(-3.07 -87.48)"/>
    <path class="cls-1" d="M125.25,288.43c-3-.24-3.12-.44-3.55-4.27C125,284.44,125.46,285,125.25,288.43Z" transform="translate(-3.07 -87.48)"/>
    <path class="cls-1" d="M123.49,279.09c-3.39-.34-3.42-.37-3.71-4.08C122.82,274.89,123.19,275.29,123.49,279.09Z" transform="translate(-3.07 -87.48)"/>
    <path class="cls-1" d="M30,158.9c.06.5-.68,1.1-1.06,1.65-.43-.45-1.09-.83-1.25-1.35a5.79,5.79,0,0,1,.61-4.7l.62,0A34.71,34.71,0,0,1,30,158.9Z" transform="translate(-3.07 -87.48)"/>
    <path class="cls-1" d="M226.56,198.77a29.92,29.92,0,0,1-2.13,3.38l-.52-.26a18.57,18.57,0,0,1,.06-3.42,3.71,3.71,0,0,1,1.27-1.76,1.66,1.66,0,0,1,1.2,0A3.88,3.88,0,0,1,226.56,198.77Z" transform="translate(-3.07 -87.48)"/>
    <path class="cls-1" d="M129.8,259.58c-1.37-1.13-2.43-2.65-3.75-2.93-1.86-.39-2.54,1.49-3.12,3.31-.74-1.85.13-2.9,1.18-3.87a2.89,2.89,0,0,1,3.5-.49C129.19,256.41,129.65,257.88,129.8,259.58Z" transform="translate(-3.07 -87.48)"/>
    <path class="cls-1" d="M174.18,279.05c-.69-.13-1.42,0-1.7-.35-1.13-1.25-2.51-1.14-4-1.06a1.93,1.93,0,0,1-1.27-.7C172.37,275.73,174.19,276.26,174.18,279.05Z" transform="translate(-3.07 -87.48)"/>
    <path class="cls-1" d="M123.78,263.61l-3.67.94c-.28-.92-.53-1.76-.83-2.78l3.9-.67C123.38,262,123.57,262.71,123.78,263.61Z" transform="translate(-3.07 -87.48)"/>
    <path class="cls-1" d="M27.34,160.59c-1.38.37-2-.36-2.34-1.41-.08-.27.24-.67.45-1.18-.95-1.2,0-3.49,2.47-4.48A7.34,7.34,0,0,0,27.34,160.59Z" transform="translate(-3.07 -87.48)"/>
    <path class="cls-1" d="M133,265.11c0,.19-.24.59-.39.6a1,1,0,0,1-.82-.33c-.2-.32-.07-.9-.31-1.12-.75-.69-1.52-1.62-2.42-1.8-1.21-.25-1.68.92-1.92,2-.14.62-.26,1.25-.38,1.87a2.49,2.49,0,0,1,.25-3.56,3.31,3.31,0,0,1,3.94-.77A3.47,3.47,0,0,1,133,265.11Z" transform="translate(-3.07 -87.48)"/>
    <path class="cls-1" d="M135.64,274.14c-.49-3.56-.49-3.56,2.4-4.59C138.61,273,138.23,273.78,135.64,274.14Z" transform="translate(-3.07 -87.48)"/>
    <path class="cls-1" d="M135.8,269.45c-.17-3.49-.17-3.49,2.68-4.42C138.92,268.19,138.58,268.77,135.8,269.45Z" transform="translate(-3.07 -87.48)"/>
    <path class="cls-1" d="M138.89,262.56c-.54,1.41-1.21,2.21-2.6,1.82-2-.58-2.08-.82-1.35-3.41Z" transform="translate(-3.07 -87.48)"/>
    <path class="cls-1" d="M128.4,259.67l-4.64.33c.17-1.46.58-2.58,2.09-2.78S127.94,258.19,128.4,259.67Z" transform="translate(-3.07 -87.48)"/>
    <path class="cls-1" d="M158.06,279c-1.18,2-3,2.29-4.91,2.36C153.52,279.08,154.91,278.4,158.06,279Z" transform="translate(-3.07 -87.48)"/>
    <path class="cls-1" d="M128.8,260.61l-4.51,3.45c-.29-1.3-.44-2-.66-3Z" transform="translate(-3.07 -87.48)"/>
    <path class="cls-1" d="M135.67,278.21c-.37-2.86-.37-2.86,2-3.69C137.92,277.35,137.69,277.79,135.67,278.21Z" transform="translate(-3.07 -87.48)"/>
    <path class="cls-1" d="M119.77,264.86c-1.47.15-2.74,0-3.19-1.22-.14-.37,1.12-1.26,2-2.25Z" transform="translate(-3.07 -87.48)"/>
    <path class="cls-1" d="M184.15,285.64l-4-4.84C181.92,280.32,183.48,281.8,184.15,285.64Z" transform="translate(-3.07 -87.48)"/>
    <path class="cls-1" d="M135.88,282.68c-.84-2.45-.48-3.57,1.32-4C137,280.13,137.88,281.85,135.88,282.68Z" transform="translate(-3.07 -87.48)"/>
    <path class="cls-1" d="M289.72,126.8c-.08.18-.15.37-.22.55h-5.45c-.06-.11-.13-.21-.19-.31.31-.23.68-.71.93-.66C286.4,126.76,288.27,125.53,289.72,126.8Z" transform="translate(-3.07 -87.48)"/>
    <path class="cls-1" d="M134,260.9v2.63l-4-2.9Z" transform="translate(-3.07 -87.48)"/>
    <path class="cls-1" d="M239.5,167.23c0,.19-1.15.49-2.21.9.35-1.55.58-2.54.8-3.53h.63A12.4,12.4,0,0,1,239.5,167.23Z" transform="translate(-3.07 -87.48)"/>
    <path class="cls-1" d="M164.25,256.18c-1.82,1.26-2.83,1.19-4-.32C161.68,255.58,163,254.89,164.25,256.18Z" transform="translate(-3.07 -87.48)"/>
    <path class="cls-1" d="M242,170.48h-2.35c.38-1.34.69-2.39,1-3.45l.36,0C241.31,168.09,241.63,169.18,242,170.48Z" transform="translate(-3.07 -87.48)"/>
    <path class="cls-1" d="M234.57,168.4c-.1-1-.21-1.86-.23-2.74,0-.17.35-.48.56-.5a.79.79,0,0,1,.62.41C236,166.59,236.49,167.65,234.57,168.4Z" transform="translate(-3.07 -87.48)"/>
    <path class="cls-1" d="M135.42,287.1c.37-1.31-.83-3.12,1.38-4C137,284.72,137.08,286.19,135.42,287.1Z" transform="translate(-3.07 -87.48)"/>
    <path class="cls-1" d="M245.45,161.32l-2.08.83c.38-1.47.67-2.63,1-3.79H245Z" transform="translate(-3.07 -87.48)"/>
    <path class="cls-1" d="M131.28,265.89l-1.8.3c-.08-.75-.15-1.4-.22-2.09C131,263.45,131.17,264.45,131.28,265.89Z" transform="translate(-3.07 -87.48)"/>
    <path class="cls-1" d="M239.21,169.5c0,1.07-.13,2.14-.2,3.21l-.21.07c-.33-1.06-.7-2.11-1-3.19a1.35,1.35,0,0,1,.29-1,.75.75,0,0,1,.74-.05A1.5,1.5,0,0,1,239.21,169.5Z" transform="translate(-3.07 -87.48)"/>
    <path class="cls-1" d="M163.23,253.8c-.74.4-1.49.79-2.41,1.27l-.87-1a18,18,0,0,1,2.32-.87C162.53,253.18,162.91,253.6,163.23,253.8Z" transform="translate(-3.07 -87.48)"/>
    <path class="cls-1" d="M336,255.74l-4.2.22C332.23,254.33,334.34,254.16,336,255.74Z" transform="translate(-3.07 -87.48)"/>
    <path class="cls-1" d="M117.69,268.29l-.58.25L115.77,265C117.62,265.45,117.62,265.45,117.69,268.29Z" transform="translate(-3.07 -87.48)"/>
    <path class="cls-1" d="M124.4,266.19l-3.45-.75c0-.1,0-.2,0-.3l3-.87Z" transform="translate(-3.07 -87.48)"/>
    <path class="cls-1" d="M66.77,141.91l-1.69,1.16c-.51-1.09-.9-1.89-1.28-2.7l.27-.23Z" transform="translate(-3.07 -87.48)"/>
    <path class="cls-1" d="M118.84,273.18l-.58.19c-.38-1.35-.76-2.7-1.15-4.05l.61-.28C118.1,270.42,118.47,271.8,118.84,273.18Z" transform="translate(-3.07 -87.48)"/>
    <path class="cls-1" d="M121.77,286.66l-.64.23-1.28-3.54.82-.22C121,284.3,121.4,285.48,121.77,286.66Z" transform="translate(-3.07 -87.48)"/>
    <path class="cls-1" d="M328.52,255.38c-.28.28-.55.75-.86.78a7.23,7.23,0,0,1-1.77-.23c0-.14-.05-.29-.07-.44a8.77,8.77,0,0,1,1.76-.71C327.85,254.73,328.21,255.17,328.52,255.38Z" transform="translate(-3.07 -87.48)"/>
    <path class="cls-1" d="M127.22,266l1-2.3C129.34,265.93,129.19,266.24,127.22,266Z" transform="translate(-3.07 -87.48)"/>
    <path class="cls-1" d="M119.69,277.78l-.73.16-.72-3.6.67-.19Z" transform="translate(-3.07 -87.48)"/>
    <path class="cls-1" d="M251.21,171.61,251,172l-2.42-1.08,1.37-1.15Z" transform="translate(-3.07 -87.48)"/>
    <path class="cls-1" d="M138.51,95.77c-2.76-.15-5.83-3.89-7.76,1-3.15-.41-6.08-2.46-9.32-1.22-1.81-.55-3.65-1.19-5.53-1.64a3.88,3.88,0,0,0-4.84,2.3c-2.17-.76-4.29-1.44-6.35-2.25-1.39-.55-2.46-.4-3.3.88-.24.37-.53.72-.77,1-1.69-.8-3.23-1.71-4.89-2.3-2.87-1-4.27-.36-5.55,2.37-.16.35-.34.71-.53,1.12-1.56-.75-3-1.52-4.56-2.18-2.41-1-2.93-.78-4,1.63-.19.42-.43.81-.63,1.18-1.25-.68-2.43-1.44-3.71-2A2.76,2.76,0,0,0,73.09,97c-2.85-1.52-5.78-4.2-8.29.21C62,96.7,59.83,93,56.7,96c-1.43-.61-2.86-1.32-4.37-1.8a1.76,1.76,0,0,0-1.56.66C47.35,100.87,44,107,40.64,113.06c-2.12,3.85-2,4.22,1.92,6.21.3.15.59.31,1.33.72-2.79,0-5.1,0-7.4-.06-.32,0-.82-.72-.88-1.16a43.52,43.52,0,0,1-.66-6c-.07-7.24,0-14.48,0-22,5,.25,10,.6,15,.72,11,.27,22,1,33,.44,11.82-.62,23.58-.17,35.37.06,4.13.08,8.28-.15,12.42-.2,6.09-.07,12.19-.07,18.28-.16,4.31-.07,8.62-.23,12.93-.35.75,0,1.5-.06,2.24,0,1.56.1,2.14.89,1.6,2.47-7.36.23-14.71.84-22-.55C141,92.68,140.21,93.06,138.51,95.77Z" transform="translate(-3.07 -87.48)"/>
    <path class="cls-1" d="M170.08,121.53c-.14.94-.25,1.78-.39,2.61s-.73,1.07-1.62,1.08q-10.44.15-20.86.43c-6.67.18-13.33.42-20,.61-4.65.13-9.31.32-14,.31-11.57,0-23.13-.18-34.7-.28-12.14-.11-24.27-.19-36.41-.38-2.85,0-5.7-.47-8.5-.72v-4.47c.72,0,1.33,0,1.94,0,17.26.22,34.52.48,51.78.63,3.73,0,7.47-.54,11.2-.53,6.84,0,13.69,0,20.51.46,13.57.83,27.11,1.39,40.69.29C163.12,121.3,166.51,121.53,170.08,121.53Z" transform="translate(-3.07 -87.48)"/>
    <path class="cls-1" d="M170.05,120.56l-2.11-.11c-.47-9.7-.93-19.32-1.41-29.37-1.45-.15-3-.46-4.57-.47-5.86,0-11.73,0-17.59.12-5.23.1-10.46.48-15.69.49-8.52,0-17,0-25.55-.37a138.93,138.93,0,0,0-20.5.55,68.88,68.88,0,0,1-9.31,0q-12.85-.31-25.71-.69c-3.85-.11-7.69-.3-11.54-.49a13.9,13.9,0,0,1-2-.43c.2,10,.4,20,.61,30.31-.39-.37-1.1-.71-1.12-1.08-.5-9.83-.94-19.65-1.38-29.48a2.26,2.26,0,0,1,.19-.52,36.61,36.61,0,0,1,4.14-.37c6.33.11,12.65.3,19,.46,1.73,0,3.45.14,5.18.13L145.27,89c6.27,0,12.55-.07,18.82,0,4.86,0,4.77.1,4.94,4.8.28,7.47.68,14.94,1,22.42C170.1,117.57,170.05,119,170.05,120.56Z" transform="translate(-3.07 -87.48)"/>
    <path class="cls-1" d="M93.67,93.7c2.21,1,4.14,1.69,6,2.63,1.05.54.74,1.56.29,2.43-2.56,5-5.15,10-7.69,15-.7,1.38-1.27,2.82-1.93,4.22-1,2.11-2.44,2.47-4.5,1.31a49.79,49.79,0,0,0-4.74-2.36c-1.09-.47-.8-1.19-.45-1.82.81-1.45,1.75-2.84,2.61-4.27,2.17-3.58,4.39-7.14,6.46-10.78.77-1.38,1-3,1.79-4.44C91.89,94.84,92.87,94.37,93.67,93.7Z" transform="translate(-3.07 -87.48)"/>
    <path class="cls-1" d="M121,97.64c-.67,1.93-1.15,3.53-1.77,5.06-2,4.88-4.12,9.73-6.08,14.63-1,2.44-1.06,2.67-3.61,2.07-6.41-1.5-6.15-2.21-4.22-6.94,1.61-3.93,3.24-7.86,4.84-11.79.45-1.12.83-2.27,1.23-3.41.81-2.33,2.28-3.17,4.69-2.59a11.84,11.84,0,0,1,3.09,1A8.89,8.89,0,0,1,121,97.64Z" transform="translate(-3.07 -87.48)"/>
    <path class="cls-1" d="M92,116l9.39-18.17a2.85,2.85,0,0,0,.31-.6c.74-3,1.36-3.3,4.07-1.9a10.26,10.26,0,0,0,1.74.75c2.47.74,2.88,1.42,1.91,3.83q-3.48,8.63-7.09,17.19c-1.21,2.84-2,3.06-4.7,1.71C95.86,117.91,94.07,117,92,116Z" transform="translate(-3.07 -87.48)"/>
    <path class="cls-1" d="M119.93,120c-1.52-.62-3.09-1.15-4.55-1.88s-1-2-.58-3c2-4.89,4.08-9.73,6.09-14.61A31.16,31.16,0,0,0,122,97.1c.37-1.33,1-1.78,2.42-1.22,1.15.47,2.41.69,3.61,1.05,1.6.48,2.08,1.36,1.49,2.85C127,106,124.5,112.23,122,118.48,121.63,119.48,121.19,120.1,119.93,120Z" transform="translate(-3.07 -87.48)"/>
    <path class="cls-1" d="M46.78,116.13c.61-1.28,1.13-2.49,1.76-3.64,2.82-5.2,5.67-10.38,8.5-15.57a2,2,0,0,1,2.85-1.12,13.64,13.64,0,0,1,3.2,1.65,2.16,2.16,0,0,1,.42,2c-.94,2.08-2.1,4.07-3.18,6.09-2.06,3.85-4.1,7.71-6.16,11.55a8.78,8.78,0,0,1-.94,1.45c-1,1.26-2,1.3-3.2.16a20.25,20.25,0,0,0-1.48-1.45A19.32,19.32,0,0,0,46.78,116.13Z" transform="translate(-3.07 -87.48)"/>
    <path class="cls-1" d="M89.06,98.5a8.73,8.73,0,0,1-.81,1.71A76.67,76.67,0,0,0,78,118.1c-.79,1.94-1,1.93-2.72.69a6,6,0,0,0-1.4-1c-2-.73-1.72-1.87-.91-3.43,3.13-6,6.13-12.1,9.27-18.1a2.33,2.33,0,0,1,2-1,25.08,25.08,0,0,1,4.3,2.16C88.76,97.59,88.85,98.08,89.06,98.5Z" transform="translate(-3.07 -87.48)"/>
    <path class="cls-1" d="M55.2,116.81c2-3.58,4.1-7.38,6.17-11.22,1.14-2.12,2.23-4.28,3.27-6.45,1.52-3.18,4.57-4.16,6.88-2a2.27,2.27,0,0,1,.57,2,38.92,38.92,0,0,1-2.46,4.7c-2.83,4.93-5.71,9.82-8.53,14.76-.92,1.61-1.43,1.69-2.84.42A34.17,34.17,0,0,0,55.2,116.81Z" transform="translate(-3.07 -87.48)"/>
    <path class="cls-1" d="M126.46,120.64c-2.82,0-3.94-1.6-3.08-3.66,2.47-5.92,5-11.81,7.48-17.72.36-.85.6-1.74.95-2.59a2,2,0,0,1,2.75-1.3c4.19,1.06,4.14,1,2.28,4.91-3,6.25-5.83,12.57-8.82,18.82C127.67,119.85,126.78,120.34,126.46,120.64Z" transform="translate(-3.07 -87.48)"/>
    <path class="cls-1" d="M62.94,116.07c3-4.64,5.94-9.14,8.8-13.71a23.07,23.07,0,0,0,2-4.14,2.4,2.4,0,0,1,3.12-1.64c1.78.48,2.82,1.77,2.48,3.18a7,7,0,0,1-.59,1.42C76,106.62,73.22,112,70.52,117.49c-1.29,2.6-2.15,2.87-4.45,1.13C65.11,117.9,64.2,117.1,62.94,116.07Z" transform="translate(-3.07 -87.48)"/>
    <path class="cls-1" d="M167.32,120.55H157.17c2.27-8.22,5.68-16,8.6-24.06l.5.07C166.62,104.45,167,112.34,167.32,120.55Z" transform="translate(-3.07 -87.48)"/>
    <path class="cls-1" d="M56.11,96.8c-2.91,5.4-5.69,10.49-8.4,15.61-.94,1.78-1.71,3.64-2.55,5.47-.46,1-1,1.09-1.84.32s-1.85-1.52-3-2.43c3.75-6.91,7.55-13.94,11.46-21.16Z" transform="translate(-3.07 -87.48)"/>
    <path class="cls-1" d="M147.08,121.36H144.4l1.09-3.45c-1.46.94-.46,4-3.69,3.36.8-2.35,1.49-4.62,2.33-6.85s1.86-4.57,2.85-6.83,1.93-4.43,3-6.58,1.41-4.35,2.6-6.28l.83.38L147.11,112l.43.17c2.18-5.33,4.37-10.65,6.52-16,.38-.95.75-1.69,1.7-1.32C152.89,103.66,150,112.41,147.08,121.36Z" transform="translate(-3.07 -87.48)"/>
    <path class="cls-1" d="M162,94.87c-2.81,8.74-5.6,17.4-8.42,26.18h-2.85c1.06-3,2.09-5.79,3.1-8.63,2-5.51,4-11,5.86-16.55C160.16,94.51,161,94.68,162,94.87Z" transform="translate(-3.07 -87.48)"/>
    <path class="cls-1" d="M157.34,94.91H159c-1.19,3.29-2.34,6.39-3.42,9.51-1.83,5.25-3.65,10.5-5.39,15.78-.36,1.08-.91,1.32-2,1C150.57,112.19,153.27,103.35,157.34,94.91Z" transform="translate(-3.07 -87.48)"/>
    <path class="cls-1" d="M138.89,121.22c2.23-5.77,4.42-11.55,6.7-17.29,1.08-2.72,2.29-5.39,3.54-8,.25-.53.92-.87,1.4-1.29l.56.43a14.61,14.61,0,0,1-.52,1.89c-.88,2.12-1.88,4.2-2.7,6.34-2.07,5.4-4.17,10.79-6,16.26C141.28,121.16,140.71,121.9,138.89,121.22Z" transform="translate(-3.07 -87.48)"/>
    <path class="cls-1" d="M141.93,94.42c-1.23,2.89-2.38,5.82-3.69,8.67-2.59,5.62-5.25,11.21-7.93,16.79a6,6,0,0,1-1.31,1.37l-.5-.35a24.77,24.77,0,0,1,.92-2.84q3.9-8.52,7.88-17c.77-1.65,1.54-3.3,2.41-4.9A16.83,16.83,0,0,1,141.35,94Z" transform="translate(-3.07 -87.48)"/>
    <path class="cls-1" d="M135.9,121.2c1.2-2.85,2.43-5.68,3.6-8.53,2.34-5.67,4.62-11.36,7-17,.19-.47.89-.73,1.35-1.09l.47.45L146.8,98.8c-2.76,7-5.55,14-8.25,21C138,121.14,137.42,121.83,135.9,121.2Z" transform="translate(-3.07 -87.48)"/>
    <path class="cls-1" d="M165.26,95c-2.15,5.55-4.33,11-6.34,16.47-1,2.74-1.62,5.61-2.5,8.39-.16.5-.78.86-1.19,1.29l-.51-.38c.37-1,.76-2.09,1.1-3.14q3.47-10.65,6.9-21.29C163.09,95.18,163.55,94.29,165.26,95Z" transform="translate(-3.07 -87.48)"/>
    <path class="cls-1" d="M144,94.54c-.26.68-.49,1.37-.77,2-3.37,7.8-6.78,15.58-10.09,23.39-.51,1.2-1.14,1.45-2.1,1.09l12.21-26.89Z" transform="translate(-3.07 -87.48)"/>
    <path class="cls-1" d="M145.84,94.72c-.39,1-.77,2-1.17,3-3.15,7.57-6.28,15.15-9.47,22.71-.18.43-.78.7-1.18,1l-.57-.46,11.66-26.61Z" transform="translate(-3.07 -87.48)"/>
    <path class="cls-1" d="M85.6,120.49,78,120.14l1.54-3.22,6.29,2.94Z" transform="translate(-3.07 -87.48)"/>
    <path class="cls-1" d="M92,116.81l5.83,2.86-.08.44-7.47.52Z" transform="translate(-3.07 -87.48)"/>
    <path class="cls-1" d="M61.52,120l1.27-3.06L67,120Z" transform="translate(-3.07 -87.48)"/>
    <path class="cls-1" d="M75.35,120h-5.3c.65-.93,1.28-2.27,1.6-2.2a22,22,0,0,1,3.93,1.59Z" transform="translate(-3.07 -87.48)"/>
    <path class="cls-1" d="M46.11,118l3.71,2h-5Z" transform="translate(-3.07 -87.48)"/>
    <path class="cls-1" d="M112.69,120l.91-1.69,3.65,1.64,0,.34Z" transform="translate(-3.07 -87.48)"/>
    <path class="cls-1" d="M107,119.67h-5l1.14-1.93Z" transform="translate(-3.07 -87.48)"/>
    <path class="cls-1" d="M217.47,128.25c0-7.19,0-14.37,0-21.56,0-2.36-.24-4.71-.35-7.06s.48-3.13,2.74-3.19c3.62-.11,7.25,0,10.87,0,6.05,0,12.09.11,18.14.06,1.41,0,2,.51,2.06,1.83s0,2.87.09,4.3q.51,15.51,1,31c.13,3.91.33,7.82.44,11.73.07,2.21-.27,2.64-2.55,2.66-5.12,0-10.24-.08-15.37-.08-4.31,0-8.63.11-13,.1-3,0-3.61-.75-3.61-3.72,0-5.35,0-10.7,0-16.06Zm31.39,15.29c-.43-14.48-.85-28.76-1.28-43.09h-27c.41,14.42.82,28.7,1.23,43.09Z" transform="translate(-3.07 -87.48)"/>
    <path class="cls-1" d="M56.35,238.42c1.69,1.62,1.58,3.45-.3,4.27a2.32,2.32,0,0,1-2-.16,2.35,2.35,0,0,1-.37-2,5.62,5.62,0,0,1,1.17-1.88c3.23-4.11,3.22-8.57,1.44-13.2a2.37,2.37,0,0,0-1.05-1c-1-.59-2.21-1-1.41-2.57.65-1.25,2.39-1.92,3.37-1.23,1.37.95.89,2,.06,3.1a3,3,0,0,0-.24.4C58.85,229,59.89,233.77,56.35,238.42Zm-.58-14.18a21.7,21.7,0,0,0,1.19-2.3c0-.09-.78-.68-.86-.62a5.46,5.46,0,0,0-1.36,1.48C54.65,223,55.23,223.51,55.77,224.24ZM57,240.53l-1.27-1a14.63,14.63,0,0,0-1.13,1.69c0,.11.58.73.62.71C55.75,241.57,56.26,241.13,57,240.53Z" transform="translate(-3.07 -87.48)"/>
    <path class="cls-1" d="M38.4,224.56C36.27,229.5,37,234,39.45,238.43a1.6,1.6,0,0,0,.78.61c1.05.47,1.26,1.35.59,2.06-.47.5-1.43.54-2.18.78-.17-.76-.75-1.83-.45-2.22.66-.86.35-1.39,0-2.12-2-4.36-2.66-8.77-.51-13.3.14-.29.12-.66.26-1,.33-.69.63-1.85,1.09-1.92a2.93,2.93,0,0,1,2.34.83,2.34,2.34,0,0,1,.13,2.27c-.36.44-1.49.27-2.29.33A3,3,0,0,1,38.4,224.56Zm.13-1.74a9.66,9.66,0,0,0,1.5,1.45c.09.06.95-.77.9-.85A5.52,5.52,0,0,0,39.68,222C39.6,222,39.12,222.41,38.53,222.82Z" transform="translate(-3.07 -87.48)"/>
    <path class="cls-1" d="M198.85,183.31c-.28-3-.41-6-.47-8.95-.08-3.68,0-7.35,0-11h.3V159c0-1.49,0-3,0-4.48-.14-3.67-1.77-5.07-5.42-4.71a25.31,25.31,0,0,1-2.57.3c-8.57-.07-17.14-.06-25.71-.31-6-.18-12-.86-18.08-1.09-6.61-.25-13.23-.23-19.84-.31a19.51,19.51,0,0,0-2.4.24c-.89.1-1.26.52-1.18,1.49.26,3.37.46,6.75.63,10.13.26,5.22.45,10.46.7,15.69.14,3.21.42,6.42.47,9.64,0,2.47.88,3.32,3.38,3a46,46,0,0,1,5.82-.63c8.4,0,16.79.31,25.18.3,8.1,0,16.2-.34,24.3-.37,3.48,0,7,.49,10.45.53C198.14,188.5,199.21,187.05,198.85,183.31Zm-4.7,4.37c-10.26,0-20.51.15-30.77.09-9.13-.06-18.26-.34-27.4-.44a42.63,42.63,0,0,0-6.67.52c-2.7.41-3.53-.27-3.62-3q-.41-12.93-1-25.86c-.1-2.29-.6-4.57-.63-6.86,0-2.6.39-2.86,3-2.86,4.43,0,8.85,0,13.28,0a.88.88,0,0,0,0-.16c7.46.51,14.91,1.23,22.37,1.47,9.25.29,18.51.4,27.76.17,6-.15,7.12.54,7.08,6.61-.05,7.76-.05,15.52,0,23.29a28.79,28.79,0,0,0,.33,2.91C198.17,186.25,196.83,187.67,194.15,187.68Z" transform="translate(-3.07 -87.48)"/>
    <path class="cls-1" d="M160.2,145.11a25.67,25.67,0,0,1,3.41.63A1.8,1.8,0,0,1,164.7,147a1.74,1.74,0,0,1-1,1.35,13.66,13.66,0,0,1-3.55.32,10.85,10.85,0,0,1-3-.48c-.53-.18-1.28-.83-1.27-1.24a2,2,0,0,1,1.2-1.37A17.21,17.21,0,0,1,160.2,145.11Zm3.89,1.75c-2-1.11-5.85-1.05-7.15,0C158.74,148.36,162.41,148.38,164.09,146.86Z" transform="translate(-3.07 -87.48)"/>
    <path class="cls-1" d="M274.26,230.24c0-13.92.12-27.85-.05-41.77-.1-8.1-.72-16.18-1.06-24.28-.2-4.83-.24-9.66-.5-14.49-.18-3.32-.7-6.63-.88-10a56.91,56.91,0,0,1,.17-7,1.77,1.77,0,0,1,1.22-1.18c2.38-.3,4.77-.54,7.16-.63q7.05-.26,14.12-.3a27.41,27.41,0,0,1,5.28.44c1.28.25,2.07.84,2,2.68-.17,6.19,0,12.4.15,18.6.19,8.11.58,16.21.69,24.32.31,21.62.38,43.25.83,64.88.2,10,1,20,1.62,30.07.18,3-.12,3.61-3,4-1.91.29-3.88.17-5.82.31-2.75.2-5.49.55-8.24.67a78.79,78.79,0,0,1-9,0c-3.83-.26-4.48-1.16-4.46-5q.07-12.94.14-25.89c0-5.18,0-10.36,0-15.54Zm28-31.83c-9-1.72-17.92-.37-26.64.34,0,7.53,0,14.95,0,22.37q0,8.9.17,17.79c0,.54.47,1.51.76,1.52,2.33.13,4.67.07,6.93.07-.36-3.13-1.06-6-.9-8.82a11.94,11.94,0,0,0-.81-5.18c-.87-2.25-1.86-4.46-2.64-6.74a18.5,18.5,0,0,1-.48-3.6l2,1.23c-.68-3.36-1.35-6.65-2-9.94l.77-.26,4.12,9.07v-6.87c3.19,2.57,1.72,6.16,3.19,9.19-.3-3.53-.55-6.61,1.42-9.63,1.43-2.2,1.95-5,2.9-7.52a17.48,17.48,0,0,1,.9-1.68l2.1,8.09c.56-2.17,1.74-2.26,3.18-1.72.6.22,1.2.42,1.81.59,2.31.62,2.54.94,2.11,3.32a20.16,20.16,0,0,1-.6,2.15c-.73,2.42-1.46,4.85-2.23,7.26-2.15,6.78-2,13.78-2.05,20.89h6Zm-21.15-4.89c-1.38-.9-.9-1.79-.42-2.84,1.84-4,3.66-8.05,5.34-12.14.92-2.23,1-2.38,3.37-1.51l2.12-5.46c1.36-3.52,1.36-3.52,5-2.2.59.22,1.66.67,1.73.55.83-1.41,2.15-.61,3.12-.75v-4.68h-27c.34,9.75.67,19.38,1,29Zm19.73-52.91c.06-1,.15-2.33.2-3.7.16-4.74-.7-5.61-5.45-5.53-.86,0-1.72.09-2.58.12-3.22.09-6.43.23-9.65.25-2.07,0-4.14-.25-6.21-.26-3.46,0-4.68,1.1-4.52,4.51.14,3.09.73,6.16.93,9.26.27,4.07.32,8.16.55,12.23,0,.52.51,1.38.89,1.45a18.69,18.69,0,0,0,3.35.07c0-3.61,0-6.91,0-10.21a10.44,10.44,0,0,1,.3-3.07,5.07,5.07,0,0,0,.25-3c-.46-1.92.16-2.35,2.2-2.35,4.77,0,9.54-.17,14.31-.17C297.23,140.21,299,140.47,300.87,140.61ZM280.27,275.9c0-1.45,0-2.76,0-4.08-.06-2.3-.16-4.59-.25-6.89,0-1-.16-1.82-1.42-2.14-.45-.12-.92-1.06-1-1.66-.25-2.28-.42-4.58-.48-6.87-.08-2.81,1.08-4.22,3.84-4.23,6.09,0,12.19.19,18.29.34a1.83,1.83,0,0,1,2,1.71c.23,2.23.55,4.45.64,6.69.11,3-.45,3.64-3.21,4.31V275c4.88.42,5.58-.37,5.15-4.77s-.66-9.05-.91-13.59c-.19-3.6-.28-7.2-.4-10.45H276.14a8.82,8.82,0,0,0-.23,1.12c-.1,8.28-.23,16.56-.27,24.84C275.63,275.4,276.78,276.23,280.27,275.9Zm9.94-24.83v-.26c-2.82,0-5.64-.12-8.45,0s-3.55,1.22-3.41,3.9c.06,1.09.18,2.18.28,3.26.12,1.24-.18,3,.5,3.56s2.46.47,3.74.48q7.67.12,15.32.11c2,0,2.76-.75,2.78-2.73s-.27-3.89-.37-5.84a2.33,2.33,0,0,0-2.63-2.51Zm-8.94,12v10.26c0,2.22.39,2.59,2.65,2.48,4.29-.21,8.59-.44,12.89-.6.94,0,1.44-.39,1.41-1.3-.12-3.61-.29-7.21-.44-10.84Zm19.34-118c-1,0-1.83-.13-2.63-.1-5,.15-10,.41-15,.46-3.89,0-3.89-.07-3.86,3.82,0,.06,0,.12,0,.18,0,1,.39,1.41,1.46,1.35,2.06-.11,4.13-.09,6.19-.1h14.14C300.81,148.51,300.72,146.88,300.61,145.06Zm.65,14.62h-27c0,1.27,0,2.19,0,3.11a5.68,5.68,0,0,0,.17.87h26.78ZM275.92,245.6c8.93-.33,17.75,1,26.43-.94v-3.33H275.92Zm21.86-74.9c-.61-.32-1.1-.62-1.62-.85-2.1-.91-2.79-.62-3.63,1.5-1.28,3.19-2.49,6.42-3.85,9.58s-2.93,6.42-4.39,9.57c.72.53,1.17.87,1.64,1.2,2.59,1.84,2.83,1.64,4-1.34,2.27-5.88,4.73-11.69,7.1-17.53C297.29,172.15,297.51,171.45,297.78,170.7Zm-2.36,59.07c-.51-1.62-2.47.07-2.39-1.75l2.41.33c.46-2.17.87-4.13,1.25-5.95-.79-.74-2.49.22-2.29-1.3a6,6,0,0,0,2.23.24c.26-.07.22-1.21.32-1.86a1.86,1.86,0,0,1,.09-.55c.41-.75.86-1.47,1.3-2.23l-1.87-1.21,2.07.24v-2.6c1.34-.43,1-1.83,1.37-2.85l-2.12-1,.12-.24,2.28.38c.33-1.18.11-1.85-1.18-2a8.26,8.26,0,0,1-1.82-.47c-1.26-.42-1.83.12-2,1.33q-1,6-2.09,12c-.65,3.6-1.34,7.19-2,10.79l.45.33,1.39-1.25.31,1.1Zm6.49-54.88-.63-.09c-2.44,6-5.74,11.76-6.9,18.58h7.53Zm-1-23.9c-.61,0-1.05-.08-1.5-.07q-7.91.12-15.82.28c-.8,0-1.6.14-2.4.18-1.32.06-2.44.31-2.29,2s1.31,1.42,2.42,1.45c2,.06,4,.24,6,.26,4.52,0,9,0,13.75,0C301,153.53,301,152.31,300.91,151Zm1.34,43.37H275.49V198c4.56-.41,9-1,13.38-1.14s8.89.22,13.38.35Zm-19,40c.35,1.73.66,3.52,1.11,5.27a1.41,1.41,0,0,0,1.08.76c2.92,0,5.85,0,8.77-.05.37,0,1-.47,1-.77.17-1.75.21-3.52.29-5.21ZM293,193c.27-.61.51-1.1.71-1.62,2.23-5.58,4.47-11.16,6.66-16.76a9.68,9.68,0,0,0,.7-3.12c0-.56-.6-1.13-.93-1.69a12,12,0,0,0-1.24,1.23,6.34,6.34,0,0,0-.87,1.46c-2.28,5.62-4.56,11.24-6.79,16.88C290.32,191.66,290.37,191.68,293,193Zm8.18-37.42h-20.5c-1.24,0-1.27.93-1.3,1.82s.39,1.37,1.45,1.37c6.37,0,12.74,0,19.11,0a9.1,9.1,0,0,0,1.24-.16ZM291,143.87v-.29c2.48,0,4.95.07,7.42-.05.58,0,1.14-.69,1.7-1.06-.5-.46-.93-1.1-1.52-1.33a6.08,6.08,0,0,0-2.05,0l-15.15,0c-.82,0-1.85-.44-1.83,1,0,1.28.63,1.83,2,1.8C284.63,143.83,287.79,143.87,291,143.87ZM293,215.33c1.67-4.88-.48-9-1.1-13.76-1.3,3.38-2.51,6.22-3.47,9.15a9.5,9.5,0,0,0,.1,3.13l.53,0,2.16-5.6.33.09C292,210.53,292.48,212.75,293,215.33Zm-1.71-4.61c-3.45,4.44-2.38,8.68.13,12.73C293.3,219.3,292.56,215.05,291.31,210.72Zm-4.16-32.46c-2,4.65-4,9.25-6,14l1.39.66c.21-.46.36-.83.53-1.19,1.76-3.84,3.5-7.68,5.28-11.51C289,178.84,288.75,178.5,287.15,178.26Zm-5.8,40.66c-1.56.67-1.66,1.51-1.13,2.74,1.09,2.53,2.09,5.09,3,7.68.44,1.22,1.09,1.78,2.69,1.39Zm2.08,12.41c-.6,1.52,0,2.33,1.32,2.36,3,.07,6.09.05,9.13-.07,1.36-.06,2-.92,1.6-2.51C291.48,232.59,287.44,232.08,283.43,231.33Zm-1.82-19.2c-1.69.79-1.11,1.73-.84,2.55q2.66,7.89,5.37,15.77a3,3,0,0,0,.54.72l.6-.24C285.4,224.72,283.53,218.5,281.61,212.13Zm7.81,19.44c-.47-5.91-.91-11.47-1.35-17l-.42-.14c-.19.36-.59.73-.56,1.07q.66,7.77,1.43,15.55C288.54,231.16,288.94,231.28,289.42,231.57ZM285,213.19c-1.81.92-1.14,5.07,2.47,15.59C286.62,223.64,285.8,218.51,285,213.19Zm5,17.87c1.6-4.09,1.28-8.14-.66-10.26C289.5,224.11,289.71,227.41,290,231.06Zm-1.87-86.36-.08-.48-5.86.29,0,.47Zm-1.47,48.6c-2.68-1.75-2.68-1.75-3,0Z" transform="translate(-3.07 -87.48)"/>
    <path class="cls-1" d="M231.16,266.32c2,0,3.18.94,3.21,2.54,0,2-1.59,3.88-3.37,3.84a4.33,4.33,0,0,1-3.74-4.05C227.24,267.39,229.05,266.31,231.16,266.32Zm2.08,2.9c0-1.36-.8-2.12-2.34-2.12a2.13,2.13,0,0,0-2.4,2.3,2.72,2.72,0,0,0,2.37,2.55A2.75,2.75,0,0,0,233.24,269.22Z" transform="translate(-3.07 -87.48)"/>
    <path class="cls-1" d="M230.77,223.84A4.13,4.13,0,0,0,227,228c0,1.76,1.36,2.88,3.39,2.87a3.55,3.55,0,0,0,3.81-3.39A3.5,3.5,0,0,0,230.77,223.84Zm-.41,6.22a2.34,2.34,0,0,1-2.19-2.72,2.8,2.8,0,0,1,2.53-2.56,3,3,0,0,1,2.39,2.95A2.63,2.63,0,0,1,230.36,230.06Z" transform="translate(-3.07 -87.48)"/>
    <path class="cls-1" d="M230.28,253.86c-2.24,0-3.6-1.52-3.56-3.88a3.69,3.69,0,0,1,3.72-3.86c1.84,0,3.67,2.44,3.6,4.74C234,252.53,232.26,253.9,230.28,253.86Zm2.78-3.7c0-1.61-1.49-3.23-2.83-3.16s-3,2.07-2.91,3.42a2.85,2.85,0,0,0,3,2.67A2.74,2.74,0,0,0,233.06,250.16Z" transform="translate(-3.07 -87.48)"/>
    <path class="cls-1" d="M147.35,230.21c.34-.77.51-1.29.78-1.76,4.93-8.59,20.52-9.23,25.47-1.58a19.33,19.33,0,0,1,2.76,15.82c-.37,1.49-1,2.91-1.48,4.37l-.43-.14c.14-.42.26-.85.44-1.26a19.56,19.56,0,0,0,.05-15.31,12,12,0,0,0-9.22-7.77c-5.56-1-10.7-.28-15,3.6A35.75,35.75,0,0,0,147.35,230.21Z" transform="translate(-3.07 -87.48)"/>
    <path class="cls-1" d="M148.64,246.72c2.23,3.63,5.15,5.93,9.56,6.42C154.53,253.76,149.44,250.32,148.64,246.72Z" transform="translate(-3.07 -87.48)"/>
    <path class="cls-1" d="M146.67,240.38v-8.71h.24v8.7Z" transform="translate(-3.07 -87.48)"/>
    <path class="cls-1" d="M287.42,114.75l-.27,4.11,2.46-.76.26.36-3.72,2.91-.67-.31,1.35-6.37Z" transform="translate(-3.07 -87.48)"/>
    <path class="cls-1" d="M146.45,290.2c.28-.17.81-.72,1.38-.78a2.38,2.38,0,0,1,2.6,2.18,1.71,1.71,0,0,1-1.8,1.87C147.26,293.5,146.42,292.45,146.45,290.2Zm3.25,1.36-1.57-1.2c-.23.39-.71.84-.63,1.14s.64.78,1,1.17Z" transform="translate(-3.07 -87.48)"/>
    <path class="cls-1" d="M184.74,292.43c-1.85,0-3.07-1.06-3-2.52s1.42-1.83,2.65-1.91a2.27,2.27,0,0,1,2.45,2.31A2.13,2.13,0,0,1,184.74,292.43Zm1.79-2c-1-.77-1.67-1.58-2.18-1.51s-1.06.93-1.58,1.44c.46.46.91,1.27,1.38,1.28S185.4,291,186.53,290.41Z" transform="translate(-3.07 -87.48)"/>
    <path class="cls-1" d="M248.86,143.54h-27c-.41-14.39-.82-28.67-1.23-43.09h27C248,114.78,248.43,129.06,248.86,143.54ZM221.41,101a4.89,4.89,0,0,0-.21.8c.2,4.94.37,9.87.67,14.8,0,.46.87,1.14,1.43,1.25a48.86,48.86,0,0,0,5.9.78,3,3,0,0,0,2.07-.61c2.25-2.17,4.52-1.78,7.11-.63a13,13,0,0,0,5.41,1.22c2.54-.08,3.7-1.7,3.6-4.22-.17-4-.44-7.91-.54-11.87,0-1.34-.7-1.43-1.75-1.44-6.32,0-12.65,0-19-.08C224.53,100.94,222.94,101,221.41,101Zm26.52,34.17-25.51.91v6.72h25.51ZM222,126.81c3.56.77,6.78,1.54,10,2.15,2.21.42,4.39.5,6.42-1a10.07,10.07,0,0,1,7.24-1.65c.55.06,1.11.1,1.66.15l.37-.48a5.3,5.3,0,0,0-1.22-1.07,24.58,24.58,0,0,1-3.17-1.25c-2.91-1.86-5.66-2.11-8.66-.1a7.08,7.08,0,0,1-7.22.47c-1.58-.7-3.53-.59-5.46-.87Zm.36,6.91c-.37,1,0,1.37,1,1.33,7.75-.28,15.49-.54,23.24-.88a1.71,1.71,0,0,0,1.13-1.2,24.75,24.75,0,0,0-.13-4.47,1.59,1.59,0,0,0-1-1.13,12.05,12.05,0,0,0-9,2.1A21.24,21.24,0,0,1,222.4,133.72Zm-.42-11.8c2.84.68,5.46,1.39,8.12,1.9a5,5,0,0,0,2.67-.28c1.57-.62,3.06-1.46,4.58-2.21l-.07-.59c-1.23,0-2.46.07-3.69,0s-2.68,0-3.64-.55a11.51,11.51,0,0,0-8-1.41Zm.17,6.25a35.11,35.11,0,0,0,0,3.58,1.58,1.58,0,0,0,.92,1.11c4.22.84,7.95-.55,11.51-2.7C230.43,129.89,226.65,127.32,222.15,128.17ZM242.46,120c-4.05-1.24-7.5-4.92-11.35-.39C234.8,119,238.32,121.19,242.46,120Zm4.91.26-5.76.67-.07.69,5.83,2.93Z" transform="translate(-3.07 -87.48)"/>
    <path class="cls-1" d="M55.77,224.24c-.54-.73-1.12-1.27-1-1.44a5.46,5.46,0,0,1,1.36-1.48c.08-.06.9.53.86.62A21.7,21.7,0,0,1,55.77,224.24Z" transform="translate(-3.07 -87.48)"/>
    <path class="cls-1" d="M57,240.53c-.72.6-1.23,1-1.78,1.42,0,0-.67-.6-.62-.71a14.63,14.63,0,0,1,1.13-1.69Z" transform="translate(-3.07 -87.48)"/>
    <path class="cls-1" d="M38.53,222.82c.59-.41,1.07-.86,1.15-.79a5.52,5.52,0,0,1,1.25,1.39c0,.08-.81.91-.9.85A9.66,9.66,0,0,1,38.53,222.82Z" transform="translate(-3.07 -87.48)"/>
    <path class="cls-1" d="M197.91,183.56a28.79,28.79,0,0,1-.33-2.91c0-7.77,0-15.53,0-23.29,0-6.07-1-6.76-7.08-6.61-9.25.23-18.51.12-27.76-.17-7.46-.24-14.91-1-22.37-1.47a.88.88,0,0,1,0,.16c-4.43,0-8.85,0-13.28,0-2.61,0-3,.26-3,2.86,0,2.29.53,4.57.63,6.86q.56,12.93,1,25.86c.09,2.74.92,3.42,3.62,3a42.63,42.63,0,0,1,6.67-.52c9.14.1,18.27.38,27.4.44,10.26.06,20.51-.07,30.77-.09C196.83,187.67,198.17,186.25,197.91,183.56Zm-20.63-18.19-.34-.45c2.91-2.42,5.41-5.36,9.23-6.6Zm-14.87,6.8c.89-2.33,21.62-18.37,24.44-18.86Z" transform="translate(-3.07 -87.48)"/>
    <path class="cls-1" d="M164.09,146.86c-1.68,1.52-5.35,1.5-7.15,0C158.24,145.81,162.11,145.75,164.09,146.86Z" transform="translate(-3.07 -87.48)"/>
    <path class="cls-1" d="M302.29,198.41v41.92h-6c.08-7.11-.1-14.11,2.05-20.89.77-2.41,1.5-4.84,2.23-7.26a20.16,20.16,0,0,0,.6-2.15c.43-2.38.2-2.7-2.11-3.32-.61-.17-1.21-.37-1.81-.59-1.44-.54-2.62-.45-3.18,1.72l-2.1-8.09a17.48,17.48,0,0,0-.9,1.68c-.95,2.52-1.47,5.32-2.9,7.52-2,3-1.72,6.1-1.42,9.63-1.47-3,0-6.62-3.19-9.19v6.87l-4.12-9.07-.77.26c.67,3.29,1.34,6.58,2,9.94l-2-1.23a18.5,18.5,0,0,0,.48,3.6c.78,2.28,1.77,4.49,2.64,6.74a11.94,11.94,0,0,1,.81,5.18c-.16,2.82.54,5.69.9,8.82-2.26,0-4.6.06-6.93-.07-.29,0-.75-1-.76-1.52q-.15-8.9-.17-17.79c0-7.42,0-14.84,0-22.37C284.37,198,293.27,196.69,302.29,198.41Z" transform="translate(-3.07 -87.48)"/>
    <path class="cls-1" d="M281.14,193.52h-5.76c-.34-9.65-.67-19.28-1-29h27v4.68c-1,.14-2.29-.66-3.12.75-.07.12-1.14-.33-1.73-.55-3.61-1.32-3.61-1.32-5,2.2L289.43,177c-2.38-.87-2.45-.72-3.37,1.51-1.68,4.09-3.5,8.12-5.34,12.14C280.24,191.73,279.76,192.62,281.14,193.52Z" transform="translate(-3.07 -87.48)"/>
    <path class="cls-1" d="M300.87,140.61c-1.87-.14-3.64-.4-5.42-.39-4.77,0-9.54.16-14.31.17-2,0-2.66.43-2.2,2.35a5.07,5.07,0,0,1-.25,3,10.44,10.44,0,0,0-.3,3.07c0,3.3,0,6.6,0,10.21a18.69,18.69,0,0,1-3.35-.07c-.38-.07-.86-.93-.89-1.45-.23-4.07-.28-8.16-.55-12.23-.2-3.1-.79-6.17-.93-9.26-.16-3.41,1.06-4.53,4.52-4.51,2.07,0,4.14.27,6.21.26,3.22,0,6.43-.16,9.65-.25.86,0,1.72-.11,2.58-.12,4.75-.08,5.61.79,5.45,5.53C301,138.28,300.93,139.64,300.87,140.61Z" transform="translate(-3.07 -87.48)"/>
    <path class="cls-1" d="M280.27,275.9c-3.49.33-4.64-.5-4.63-3.72,0-8.28.17-16.56.27-24.84a8.82,8.82,0,0,1,.23-1.12h26.42c.12,3.25.21,6.85.4,10.45.25,4.54.47,9.08.91,13.59s-.27,5.19-5.15,4.77V263.08c2.76-.67,3.32-1.33,3.21-4.31-.09-2.24-.41-4.46-.64-6.69a1.83,1.83,0,0,0-2-1.71c-6.1-.15-12.2-.35-18.29-.34-2.76,0-3.92,1.42-3.84,4.23.06,2.29.23,4.59.48,6.87.06.6.53,1.54,1,1.66,1.26.32,1.38,1.15,1.42,2.14.09,2.3.19,4.59.25,6.89C280.3,273.14,280.27,274.45,280.27,275.9Z" transform="translate(-3.07 -87.48)"/>
    <path class="cls-1" d="M290.21,251.07H298a2.33,2.33,0,0,1,2.63,2.51c.1,1.95.39,3.9.37,5.84s-.82,2.73-2.78,2.73q-7.65,0-15.32-.11c-1.28,0-2.95.21-3.74-.48s-.38-2.32-.5-3.56c-.1-1.08-.22-2.17-.28-3.26-.14-2.68.69-3.75,3.41-3.9s5.63,0,8.45,0Zm-.84,10.1c2.25-.41,4.65-1.9,5.22-3.59a1.56,1.56,0,0,0-.45-1.45,2.1,2.1,0,0,0-1.72,0c-.3.15-.3.91-.42,1.41-.17.67-.18,1.84-.49,1.92a6.22,6.22,0,0,1-3.2.08c-.84-.26-.57-1.11-.09-1.86a1.59,1.59,0,0,0-.57-1.44,5.32,5.32,0,0,0-2,.25,9.84,9.84,0,0,0,.43,1.74,3.17,3.17,0,0,0,.9.93C287.76,259.82,288.57,260.49,289.37,261.17Z" transform="translate(-3.07 -87.48)"/>
    <path class="cls-1" d="M281.27,263.09h16.51c.15,3.63.32,7.23.44,10.84,0,.91-.47,1.26-1.41,1.3-4.3.16-8.6.39-12.89.6-2.26.11-2.66-.26-2.65-2.48Z" transform="translate(-3.07 -87.48)"/>
    <path class="cls-1" d="M300.61,145.06c.11,1.82.2,3.45.32,5.61H286.79c-2.06,0-4.13,0-6.19.1-1.07.06-1.5-.34-1.46-1.35,0-.06,0-.12,0-.18,0-3.89,0-3.78,3.86-3.82,5,0,10-.31,15-.46C298.78,144.93,299.58,145,300.61,145.06Z" transform="translate(-3.07 -87.48)"/>
    <path class="cls-1" d="M301.26,159.68v4H274.48a5.68,5.68,0,0,1-.17-.87c0-.92,0-1.84,0-3.11Z" transform="translate(-3.07 -87.48)"/>
    <path class="cls-1" d="M275.92,245.6v-4.27h26.43v3.33C293.67,246.56,284.85,245.27,275.92,245.6Z" transform="translate(-3.07 -87.48)"/>
    <path class="cls-1" d="M297.78,170.7c-.27.75-.49,1.45-.77,2.13-2.37,5.84-4.83,11.65-7.1,17.53-1.15,3-1.39,3.18-4,1.34-.47-.33-.92-.67-1.64-1.2,1.46-3.15,3-6.33,4.39-9.57s2.57-6.39,3.85-9.58c.84-2.12,1.53-2.41,3.63-1.5C296.68,170.08,297.17,170.38,297.78,170.7Z" transform="translate(-3.07 -87.48)"/>
    <path class="cls-1" d="M295.42,229.77l-2.21,1.52-.31-1.1-1.39,1.25-.45-.33c.67-3.6,1.36-7.19,2-10.79q1.08-6,2.09-12c.2-1.21.77-1.75,2-1.33a8.26,8.26,0,0,0,1.82.47c1.29.12,1.51.79,1.18,2l-2.28-.38-.12.24,2.12,1c-.38,1,0,2.42-1.37,2.85v2.6l-2.07-.24,1.87,1.21c-.44.76-.89,1.48-1.3,2.23a1.86,1.86,0,0,0-.09.55c-.1.65-.06,1.79-.32,1.86a6,6,0,0,1-2.23-.24c-.2,1.52,1.5.56,2.29,1.3-.38,1.82-.79,3.78-1.25,5.95L293,228C293,229.84,294.91,228.15,295.42,229.77Z" transform="translate(-3.07 -87.48)"/>
    <path class="cls-1" d="M301.91,174.89v18.49h-7.53c1.16-6.82,4.46-12.54,6.9-18.58Z" transform="translate(-3.07 -87.48)"/>
    <path class="cls-1" d="M300.91,151c0,1.32.11,2.54.18,4.12-4.71,0-9.23,0-13.75,0-2,0-4-.2-6-.26-1.11,0-2.28.16-2.42-1.45s1-1.95,2.29-2c.8,0,1.6-.16,2.4-.18q7.91-.16,15.82-.28C299.86,150.91,300.3,151,300.91,151Z" transform="translate(-3.07 -87.48)"/>
    <path class="cls-1" d="M302.25,194.36v2.81c-4.49-.13-8.94-.48-13.38-.35s-8.82.73-13.38,1.14v-3.6Z" transform="translate(-3.07 -87.48)"/>
    <path class="cls-1" d="M283.21,234.4h12.28c-.08,1.69-.12,3.46-.29,5.21,0,.3-.66.76-1,.77-2.92.08-5.85.1-8.77.05a1.41,1.41,0,0,1-1.08-.76C283.87,237.92,283.56,236.13,283.21,234.4Z" transform="translate(-3.07 -87.48)"/>
    <path class="cls-1" d="M293,193c-2.6-1.33-2.65-1.35-1.76-3.62,2.23-5.64,4.51-11.26,6.79-16.88a6.34,6.34,0,0,1,.87-1.46,12,12,0,0,1,1.24-1.23c.33.56.95,1.13.93,1.69a9.68,9.68,0,0,1-.7,3.12c-2.19,5.6-4.43,11.18-6.66,16.76C293.48,191.91,293.24,192.4,293,193Z" transform="translate(-3.07 -87.48)"/>
    <path class="cls-1" d="M301.15,155.59v3a9.1,9.1,0,0,1-1.24.16c-6.37,0-12.74,0-19.11,0-1.06,0-1.49-.37-1.45-1.37s.06-1.82,1.3-1.82Z" transform="translate(-3.07 -87.48)"/>
    <path class="cls-1" d="M291,143.87c-3.16,0-6.32,0-9.48,0-1.32,0-1.93-.52-2-1.8,0-1.46,1-1,1.83-1l15.15,0a6.08,6.08,0,0,1,2.05,0c.59.23,1,.87,1.52,1.33-.56.37-1.12,1-1.7,1.06-2.47.12-4.94.05-7.42.05Z" transform="translate(-3.07 -87.48)"/>
    <path class="cls-1" d="M293,215.33c-.54-2.58-1-4.8-1.45-7l-.33-.09-2.16,5.6-.53,0a9.5,9.5,0,0,1-.1-3.13c1-2.93,2.17-5.77,3.47-9.15C292.54,206.35,294.69,210.45,293,215.33Z" transform="translate(-3.07 -87.48)"/>
    <path class="cls-1" d="M291.31,210.72c1.25,4.33,2,8.58.13,12.73C288.93,219.4,287.86,215.16,291.31,210.72Z" transform="translate(-3.07 -87.48)"/>
    <path class="cls-1" d="M287.15,178.26c1.6.24,1.8.58,1.18,1.92-1.78,3.83-3.52,7.67-5.28,11.51-.17.36-.32.73-.53,1.19l-1.39-.66C283.16,187.51,285.15,182.91,287.15,178.26Z" transform="translate(-3.07 -87.48)"/>
    <path class="cls-1" d="M281.35,218.92l4.59,11.81c-1.6.39-2.25-.17-2.69-1.39-.94-2.59-1.94-5.15-3-7.68C279.69,220.43,279.79,219.59,281.35,218.92Z" transform="translate(-3.07 -87.48)"/>
    <path class="cls-1" d="M283.43,231.33c4,.75,8.05,1.26,12.05-.22.42,1.59-.24,2.45-1.6,2.51-3,.12-6.09.14-9.13.07C283.41,233.66,282.83,232.85,283.43,231.33Z" transform="translate(-3.07 -87.48)"/>
    <path class="cls-1" d="M281.61,212.13c1.92,6.37,3.79,12.59,5.67,18.8l-.6.24a3,3,0,0,1-.54-.72q-2.7-7.87-5.37-15.77C280.5,213.86,279.92,212.92,281.61,212.13Z" transform="translate(-3.07 -87.48)"/>
    <path class="cls-1" d="M289.42,231.57c-.48-.29-.88-.41-.9-.56q-.76-7.77-1.43-15.55c0-.34.37-.71.56-1.07l.42.14C288.51,220.1,289,225.66,289.42,231.57Z" transform="translate(-3.07 -87.48)"/>
    <path class="cls-1" d="M285,213.19c.84,5.32,1.66,10.45,2.47,15.59C283.82,218.26,283.15,214.11,285,213.19Z" transform="translate(-3.07 -87.48)"/>
    <path class="cls-1" d="M290,231.06c-.24-3.65-.45-6.95-.66-10.26C291.23,222.92,291.55,227,290,231.06Z" transform="translate(-3.07 -87.48)"/>
    <path class="cls-1" d="M288.08,144.7l-5.91.28,0-.47,5.86-.29Z" transform="translate(-3.07 -87.48)"/>
    <path class="cls-1" d="M286.61,193.3h-3C283.93,191.55,283.93,191.55,286.61,193.3Z" transform="translate(-3.07 -87.48)"/>
    <path class="cls-1" d="M233.24,269.22a2.75,2.75,0,0,1-2.37,2.73,2.72,2.72,0,0,1-2.37-2.55,2.13,2.13,0,0,1,2.4-2.3C232.44,267.1,233.27,267.86,233.24,269.22Z" transform="translate(-3.07 -87.48)"/>
    <path class="cls-1" d="M233.09,227.73a2.63,2.63,0,0,1-2.73,2.33,2.34,2.34,0,0,1-2.19-2.72,2.8,2.8,0,0,1,2.53-2.56A3,3,0,0,1,233.09,227.73Z" transform="translate(-3.07 -87.48)"/>
    <path class="cls-1" d="M233.06,250.16a2.74,2.74,0,0,1-2.72,2.93,2.85,2.85,0,0,1-3-2.67c-.07-1.35,1.64-3.36,2.91-3.42S233,248.55,233.06,250.16Z" transform="translate(-3.07 -87.48)"/>
    <path class="cls-1" d="M149.7,291.56l-1.21,1.11c-.35-.39-.86-.73-1-1.17s.4-.75.63-1.14Z" transform="translate(-3.07 -87.48)"/>
    <path class="cls-1" d="M186.53,290.41c-1.13.62-1.77,1.23-2.38,1.21s-.92-.82-1.38-1.28c.52-.51,1-1.37,1.58-1.44S185.49,289.64,186.53,290.41Z" transform="translate(-3.07 -87.48)"/>
    <path class="cls-1" d="M221.41,101c1.53,0,3.12,0,4.71,0,6.33,0,12.66.08,19,.08,1.05,0,1.71.1,1.75,1.44.1,4,.37,7.91.54,11.87.1,2.52-1.06,4.14-3.6,4.22a13,13,0,0,1-5.41-1.22c-2.59-1.15-4.86-1.54-7.11.63a3,3,0,0,1-2.07.61,48.86,48.86,0,0,1-5.9-.78c-.56-.11-1.4-.79-1.43-1.25-.3-4.93-.47-9.86-.67-14.8A4.89,4.89,0,0,1,221.41,101Zm18.7,5.21c-.38-.27-1-1.09-1.68-1.14a1.88,1.88,0,0,0-2.06,2,1.48,1.48,0,0,0,1.76,1.6C239.26,108.55,240.07,108,240.11,106.16Z" transform="translate(-3.07 -87.48)"/>
    <path class="cls-1" d="M247.93,135.12v7.63H222.42V136Zm-6.61,3-.17-.65a7.22,7.22,0,0,0-7.68,3.38l5-.5-2.29-1.23Zm-14.82.65c3.5,1.06,6.13-.28,8.8-1.4l-4.87.41.12,1Zm14.31-2.36,0-.25h-5.44v.25Z" transform="translate(-3.07 -87.48)"/>
    <path class="cls-1" d="M222,126.81v-3.63c1.93.28,3.88.17,5.46.87a7.08,7.08,0,0,0,7.22-.47c3-2,5.75-1.76,8.66.1a24.58,24.58,0,0,0,3.17,1.25,5.3,5.3,0,0,1,1.22,1.07l-.37.48c-.55,0-1.11-.09-1.66-.15A10.07,10.07,0,0,0,238.5,128c-2,1.48-4.21,1.4-6.42,1C228.82,128.35,225.6,127.58,222,126.81Z" transform="translate(-3.07 -87.48)"/>
    <path class="cls-1" d="M222.4,133.72a21.24,21.24,0,0,0,15.24-4.25,12.05,12.05,0,0,1,9-2.1,1.59,1.59,0,0,1,1,1.13,24.75,24.75,0,0,1,.13,4.47,1.71,1.71,0,0,1-1.13,1.2c-7.75.34-15.49.6-23.24.88C222.4,135.09,222,134.7,222.4,133.72Z" transform="translate(-3.07 -87.48)"/>
    <path class="cls-1" d="M222,121.92v-3.16a11.51,11.51,0,0,1,8,1.41c1,.59,2.41.47,3.64.55s2.46,0,3.69,0l.07.59c-1.52.75-3,1.59-4.58,2.21a5,5,0,0,1-2.67.28C227.44,123.31,224.82,122.6,222,121.92Z" transform="translate(-3.07 -87.48)"/>
    <path class="cls-1" d="M222.15,128.17c4.5-.85,8.28,1.72,12.47,2-3.56,2.15-7.29,3.54-11.51,2.7a1.58,1.58,0,0,1-.92-1.11A35.11,35.11,0,0,1,222.15,128.17Z" transform="translate(-3.07 -87.48)"/>
    <path class="cls-1" d="M242.46,120c-4.14,1.2-7.66-1-11.35-.39C235,115.07,238.41,118.75,242.46,120Z" transform="translate(-3.07 -87.48)"/>
    <path class="cls-1" d="M247.37,120.25v4.29l-5.83-2.93.07-.69Z" transform="translate(-3.07 -87.48)"/>
    <path class="cls-1" d="M186.85,153.31l-24.44,18.86C163.3,169.84,184,153.8,186.85,153.31Z" transform="translate(-3.07 -87.48)"/>
    <path class="cls-1" d="M176.94,164.92c2.91-2.42,5.41-5.36,9.23-6.6l-8.89,7.05Z" transform="translate(-3.07 -87.48)"/>
    <path class="cls-1" d="M289.37,261.17c-.8-.68-1.61-1.35-2.4-2a3.17,3.17,0,0,1-.9-.93,9.84,9.84,0,0,1-.43-1.74,5.32,5.32,0,0,1,2-.25,1.59,1.59,0,0,1,.57,1.44c-.48.75-.75,1.6.09,1.86a6.22,6.22,0,0,0,3.2-.08c.31-.08.32-1.25.49-1.92.12-.5.12-1.26.42-1.41a2.1,2.1,0,0,1,1.72,0,1.56,1.56,0,0,1,.45,1.45C294,259.27,291.62,260.76,289.37,261.17Z" transform="translate(-3.07 -87.48)"/>
    <path class="cls-1" d="M240.11,106.16c0,1.86-.85,2.39-2,2.47a1.48,1.48,0,0,1-1.76-1.6,1.88,1.88,0,0,1,2.06-2C239.11,105.07,239.73,105.89,240.11,106.16Zm-.65.84-1-1.11a6,6,0,0,0-1,1.17c-.07.12.5.82.7.79C238.54,107.78,238.89,107.39,239.46,107Z" transform="translate(-3.07 -87.48)"/>
    <path class="cls-1" d="M241.32,138.1l-5.14,1,2.29,1.23-5,.5a7.22,7.22,0,0,1,7.68-3.38Z" transform="translate(-3.07 -87.48)"/>
    <path class="cls-1" d="M226.5,138.75h4.05l-.12-1,4.87-.41C232.63,138.47,230,139.81,226.5,138.75Z" transform="translate(-3.07 -87.48)"/>
    <path class="cls-1" d="M240.81,136.39h-5.45v-.25h5.44Z" transform="translate(-3.07 -87.48)"/>
    <path class="cls-1" d="M239.46,107c-.57.39-.92.78-1.33.85-.2,0-.77-.67-.7-.79a6,6,0,0,1,1-1.17Z" transform="translate(-3.07 -87.48)"/>
  </g>
</svg>
